<svg width="19" height="13" viewBox="0 0 19 13" fill="none" xmlns="http://www.w3.org/2000/svg">
<path d="M16.7673 0.0209808H2.36725C1.58245 0.0497808 0.956046 0.676181 0.927246 1.46098V11.541C0.956046 12.3258 1.58245 12.9522 2.36725 12.981H16.7673C17.5521 12.9522 18.1785 12.3258 18.2073 11.541V1.46098C18.194 1.08329 18.038 0.724668 17.7708 0.457434C17.5036 0.190201 17.1449 0.0342327 16.7673 0.0209808ZM16.7673 11.541H2.36725V1.46098H16.7673V11.541ZM11.0073 10.101V9.20098C11.0073 8.00578 8.60245 7.40098 7.40725 7.40098C6.21205 7.40098 3.80725 8.00578 3.80725 9.20098V10.101H11.0073ZM7.40725 2.90098C6.92986 2.90098 6.47202 3.09062 6.13446 3.42819C5.79689 3.76575 5.60725 4.22359 5.60725 4.70098C5.60725 4.93736 5.65381 5.17143 5.74427 5.38981C5.83472 5.6082 5.96731 5.80663 6.13446 5.97377C6.47202 6.31134 6.92986 6.50098 7.40725 6.50098C7.64363 6.50098 7.87769 6.45442 8.09608 6.36396C8.31447 6.27351 8.5129 6.14092 8.68004 5.97377C8.84719 5.80663 8.97978 5.6082 9.07023 5.38981C9.16069 5.17143 9.20725 4.93736 9.20725 4.70098C9.20725 4.4646 9.16069 4.23054 9.07023 4.01215C8.97978 3.79376 8.84719 3.59533 8.68004 3.42819C8.5129 3.26104 8.31447 3.12846 8.09608 3.038C7.87769 2.94754 7.64363 2.90098 7.40725 2.90098ZM11.0073 2.90098V3.62098H15.3273V2.90098H11.0073ZM11.0073 4.34098V5.06098H15.3273V4.34098H11.0073ZM11.0073 5.78098V6.50098H13.8873V5.78098H11.0073Z" fill="#42526E"/>
</svg>
