<svg width="24" height="24" viewBox="0 0 24 24" fill="none" xmlns="http://www.w3.org/2000/svg">
<path fill-rule="evenodd" clip-rule="evenodd" d="M16.9303 10.135V9.36398C16.9303 6.95436 14.9769 5.00098 12.5673 5.00098C10.1577 5.00098 8.20428 6.95436 8.20428 9.36398V10.135C7.56241 10.3572 7.12699 10.9559 7.11328 11.635V17.362C7.13309 17.8218 7.33681 18.2544 7.67866 18.5626C8.02052 18.8708 8.47185 19.0288 8.93128 19.001H16.2033C16.6622 19.0288 17.1131 18.8712 17.4549 18.5637C17.7966 18.2561 18.0007 17.8243 18.0213 17.365V11.638C18.0088 10.9577 17.5732 10.3576 16.9303 10.135ZM12.5673 7.18298C13.7715 7.18408 14.7476 8.15974 14.7493 9.36398V10.001H10.3853V9.36398C10.3869 8.15974 11.363 7.18408 12.5673 7.18298Z" fill="#42526E"/>
</svg>
