<svg width="341" height="165" viewBox="0 0 341 165" fill="none" xmlns="http://www.w3.org/2000/svg">
<rect x="2" y="1.57031" width="337.5" height="161.6" rx="14" stroke="white" stroke-width="3"/>
<path d="M107.929 111.24V109.461H109.721V111.24H107.929ZM114.47 111.304C113.676 111.304 113.062 111.223 112.627 111.061C112.2 110.899 111.902 110.647 111.731 110.305C111.56 109.956 111.462 109.516 111.436 108.987L111.168 101.87H112.96L113.228 108.129C113.246 108.522 113.288 108.816 113.356 109.013C113.425 109.209 113.553 109.341 113.74 109.409C113.937 109.478 114.223 109.512 114.598 109.512C114.922 109.512 115.153 109.597 115.289 109.768C115.434 109.93 115.507 110.135 115.507 110.382C115.507 110.647 115.417 110.869 115.238 111.048C115.059 111.219 114.803 111.304 114.47 111.304ZM114.487 111.304L114.615 109.512C114.94 109.512 115.196 109.482 115.383 109.422C115.58 109.363 115.733 109.243 115.844 109.064C115.964 108.876 116.062 108.603 116.139 108.245C116.224 107.886 116.309 107.408 116.395 106.811L118.071 107.093C118.054 107.221 118.029 107.37 117.995 107.541C117.969 107.711 117.943 107.886 117.918 108.065C117.901 108.236 117.892 108.398 117.892 108.552C117.892 108.757 117.935 108.932 118.02 109.077C118.114 109.213 118.276 109.32 118.507 109.397C118.746 109.473 119.087 109.512 119.531 109.512C119.855 109.512 120.085 109.597 120.222 109.768C120.358 109.93 120.427 110.135 120.427 110.382C120.427 110.647 120.337 110.869 120.158 111.048C119.987 111.219 119.735 111.304 119.403 111.304C118.814 111.304 118.336 111.248 117.969 111.137C117.602 111.027 117.329 110.839 117.15 110.574C116.971 110.31 116.855 109.947 116.804 109.486H117.419C117.265 109.896 117.086 110.224 116.881 110.472C116.676 110.711 116.446 110.89 116.19 111.009C115.934 111.129 115.661 111.206 115.371 111.24C115.089 111.283 114.795 111.304 114.487 111.304ZM117.099 105.505C116.834 105.505 116.608 105.416 116.42 105.237C116.241 105.057 116.151 104.836 116.151 104.571C116.151 104.307 116.241 104.08 116.42 103.893C116.608 103.705 116.834 103.611 117.099 103.611C117.355 103.611 117.572 103.705 117.751 103.893C117.939 104.08 118.033 104.307 118.033 104.571C118.033 104.836 117.939 105.057 117.751 105.237C117.572 105.416 117.355 105.505 117.099 105.505ZM124.61 111.342C124.226 111.342 123.829 111.295 123.419 111.201C123.018 111.108 122.63 110.967 122.254 110.779C121.879 110.591 121.542 110.357 121.243 110.075C120.945 109.793 120.706 109.469 120.526 109.102C120.356 108.727 120.27 108.304 120.27 107.835C120.27 107.451 120.351 107.097 120.514 106.773C120.676 106.448 120.915 106.188 121.23 105.992C121.555 105.787 121.947 105.685 122.408 105.685C122.843 105.685 123.219 105.791 123.534 106.005C123.859 106.209 124.11 106.478 124.29 106.811C124.469 107.135 124.558 107.477 124.558 107.835C124.558 108.407 124.418 108.91 124.136 109.345C123.854 109.772 123.466 110.131 122.971 110.421C122.485 110.711 121.934 110.933 121.32 111.086C120.706 111.231 120.066 111.304 119.4 111.304L119.528 109.512C120.014 109.512 120.437 109.499 120.795 109.473C121.162 109.448 121.478 109.392 121.742 109.307C122.007 109.222 122.237 109.094 122.434 108.923C122.63 108.752 122.779 108.565 122.882 108.36C122.993 108.147 123.048 107.937 123.048 107.733C123.048 107.596 123.027 107.468 122.984 107.349C122.95 107.229 122.89 107.131 122.805 107.054C122.728 106.969 122.626 106.926 122.498 106.926C122.361 106.926 122.246 106.969 122.152 107.054C122.067 107.131 121.998 107.233 121.947 107.361C121.905 107.489 121.883 107.626 121.883 107.771C121.883 108.07 121.96 108.339 122.114 108.577C122.276 108.816 122.489 109.017 122.754 109.179C123.018 109.341 123.308 109.465 123.624 109.55C123.948 109.636 124.277 109.678 124.61 109.678C124.874 109.678 125.062 109.636 125.173 109.55C125.284 109.465 125.339 109.35 125.339 109.205C125.339 109.102 125.314 108.996 125.262 108.885C125.22 108.765 125.122 108.62 124.968 108.449C124.814 108.279 124.58 108.07 124.264 107.822C123.948 107.566 123.526 107.251 122.997 106.875C122.468 106.5 121.802 106.043 121 105.505L121.986 104.11C122.89 104.75 123.645 105.309 124.251 105.787C124.866 106.265 125.361 106.683 125.736 107.041C126.111 107.4 126.397 107.716 126.594 107.989C126.798 108.253 126.935 108.496 127.003 108.718C127.071 108.94 127.106 109.162 127.106 109.384C127.106 109.793 127.007 110.143 126.811 110.433C126.615 110.724 126.329 110.95 125.954 111.112C125.587 111.265 125.139 111.342 124.61 111.342ZM131.317 114.184L130.664 112.545C131.398 112.289 131.991 112.008 132.444 111.701C132.904 111.393 133.242 111.065 133.455 110.715C133.677 110.365 133.788 110.003 133.788 109.627C133.788 109.388 133.754 109.141 133.685 108.885C133.617 108.62 133.519 108.343 133.391 108.053C133.271 107.763 133.126 107.46 132.956 107.144L134.632 106.337C134.931 106.909 135.162 107.455 135.324 107.976C135.494 108.496 135.58 108.983 135.58 109.435C135.58 109.853 135.524 110.254 135.413 110.638C135.311 111.022 135.149 111.381 134.927 111.713C134.714 112.055 134.436 112.375 134.095 112.673C133.754 112.972 133.352 113.245 132.892 113.493C132.431 113.749 131.906 113.979 131.317 114.184ZM137.08 114.184L136.708 112.392C137.314 112.315 137.843 112.221 138.296 112.11C138.748 112.008 139.128 111.863 139.435 111.675C139.742 111.487 139.972 111.231 140.126 110.907C140.28 110.574 140.356 110.148 140.356 109.627C140.356 109.124 140.28 108.723 140.126 108.424C139.972 108.125 139.768 107.976 139.512 107.976C139.332 107.976 139.183 108.04 139.064 108.168C138.944 108.287 138.855 108.432 138.795 108.603C138.744 108.765 138.718 108.91 138.718 109.038C138.718 109.115 138.739 109.196 138.782 109.281C138.825 109.367 138.919 109.439 139.064 109.499C139.209 109.559 139.435 109.593 139.742 109.601C140.058 109.61 140.484 109.58 141.022 109.512H143.172C143.497 109.512 143.727 109.597 143.864 109.768C144.009 109.93 144.081 110.135 144.081 110.382C144.081 110.647 143.992 110.869 143.812 111.048C143.633 111.219 143.377 111.304 143.044 111.304H139.524C138.987 111.304 138.526 111.24 138.142 111.112C137.758 110.984 137.464 110.779 137.259 110.497C137.054 110.207 136.952 109.823 136.952 109.345C136.952 108.961 137.016 108.577 137.144 108.193C137.28 107.809 137.468 107.46 137.707 107.144C137.946 106.82 138.223 106.564 138.539 106.376C138.863 106.18 139.213 106.081 139.588 106.081C140.1 106.081 140.548 106.239 140.932 106.555C141.316 106.871 141.615 107.289 141.828 107.809C142.05 108.33 142.161 108.897 142.161 109.512C142.161 110.476 141.956 111.295 141.547 111.969C141.137 112.644 140.553 113.164 139.793 113.531C139.034 113.907 138.129 114.124 137.08 114.184ZM149.693 111.47C148.899 111.47 148.238 111.436 147.709 111.368C147.188 111.3 146.766 111.201 146.442 111.073C146.117 110.945 145.861 110.792 145.674 110.613C145.486 110.433 145.332 110.237 145.213 110.024L145.571 109.921C145.358 110.331 145.115 110.634 144.842 110.83C144.569 111.027 144.283 111.155 143.984 111.214C143.685 111.274 143.378 111.304 143.062 111.304L143.19 109.512C143.455 109.512 143.664 109.469 143.818 109.384C143.971 109.299 144.095 109.158 144.189 108.961C144.291 108.765 144.385 108.505 144.47 108.181C144.556 107.856 144.658 107.46 144.778 106.99L146.403 107.387C146.344 107.617 146.292 107.818 146.25 107.989C146.216 108.159 146.186 108.309 146.16 108.437C146.143 108.556 146.134 108.654 146.134 108.731C146.134 108.893 146.173 109.038 146.25 109.166C146.326 109.286 146.476 109.384 146.698 109.461C146.92 109.529 147.244 109.584 147.67 109.627C148.106 109.661 148.673 109.678 149.373 109.678C150.115 109.678 150.734 109.653 151.229 109.601C151.724 109.542 152.116 109.461 152.406 109.358C152.705 109.247 152.918 109.115 153.046 108.961C153.174 108.799 153.238 108.616 153.238 108.411C153.238 108.249 153.2 108.1 153.123 107.963C153.055 107.818 152.94 107.699 152.778 107.605C152.616 107.511 152.406 107.464 152.15 107.464C151.843 107.464 151.532 107.541 151.216 107.694C150.909 107.839 150.606 108.036 150.307 108.283C150.009 108.522 149.723 108.791 149.45 109.089C149.185 109.388 148.946 109.687 148.733 109.985L146.813 109.768C147.146 109.23 147.521 108.714 147.939 108.219C148.357 107.724 148.805 107.289 149.283 106.913C149.761 106.529 150.256 106.227 150.768 106.005C151.28 105.783 151.801 105.672 152.33 105.672C152.901 105.672 153.388 105.783 153.789 106.005C154.19 106.227 154.497 106.534 154.71 106.926C154.924 107.319 155.03 107.771 155.03 108.283C155.03 108.906 154.851 109.456 154.493 109.934C154.143 110.412 153.576 110.788 152.79 111.061C152.014 111.334 150.981 111.47 149.693 111.47ZM163.505 113.646C162.933 113.646 162.395 113.582 161.892 113.454C161.397 113.335 160.957 113.143 160.573 112.878C160.198 112.622 159.904 112.285 159.69 111.867C159.477 111.457 159.37 110.963 159.37 110.382C159.37 110.186 159.383 109.964 159.409 109.717C159.443 109.469 159.511 109.175 159.613 108.833C159.716 108.484 159.874 108.078 160.087 107.617L161.649 108.219C161.521 108.526 161.423 108.787 161.354 109C161.286 109.205 161.235 109.392 161.201 109.563C161.175 109.725 161.162 109.896 161.162 110.075C161.162 110.357 161.222 110.608 161.341 110.83C161.469 111.052 161.644 111.24 161.866 111.393C162.097 111.547 162.374 111.662 162.698 111.739C163.031 111.816 163.402 111.854 163.812 111.854C164.341 111.854 164.802 111.82 165.194 111.752C165.587 111.692 165.915 111.603 166.18 111.483C166.453 111.372 166.671 111.236 166.833 111.073C166.995 110.911 167.11 110.736 167.178 110.549C167.264 110.327 167.319 110.096 167.345 109.857C167.379 109.61 167.396 109.328 167.396 109.013C167.396 108.637 167.362 108.317 167.293 108.053C167.234 107.78 167.14 107.571 167.012 107.425C166.884 107.28 166.726 107.208 166.538 107.208C166.385 107.208 166.244 107.259 166.116 107.361C165.996 107.464 165.903 107.592 165.834 107.745C165.766 107.891 165.732 108.04 165.732 108.193C165.732 108.321 165.762 108.428 165.821 108.513C165.89 108.599 165.988 108.667 166.116 108.718C166.244 108.761 166.402 108.782 166.589 108.782C166.777 108.782 166.986 108.761 167.217 108.718C167.447 108.667 167.652 108.59 167.831 108.488L167.959 110.037C167.754 110.199 167.477 110.323 167.127 110.408C166.786 110.485 166.466 110.523 166.167 110.523C165.723 110.523 165.335 110.463 165.002 110.344C164.678 110.216 164.426 110.007 164.247 109.717C164.068 109.427 163.978 109.034 163.978 108.539C163.978 108.181 164.042 107.822 164.17 107.464C164.298 107.097 164.477 106.76 164.708 106.453C164.938 106.145 165.216 105.902 165.54 105.723C165.864 105.535 166.223 105.441 166.615 105.441C167.17 105.441 167.635 105.604 168.01 105.928C168.394 106.244 168.684 106.666 168.881 107.195C169.085 107.716 169.188 108.283 169.188 108.897C169.188 109.469 169.128 109.973 169.009 110.408C168.898 110.835 168.753 111.214 168.573 111.547C168.36 111.923 168.091 112.243 167.767 112.507C167.451 112.78 167.08 112.998 166.653 113.16C166.235 113.331 165.762 113.454 165.233 113.531C164.704 113.608 164.128 113.646 163.505 113.646ZM167.754 104.277C167.507 104.277 167.293 104.191 167.114 104.021C166.944 103.841 166.858 103.632 166.858 103.393C166.858 103.146 166.944 102.933 167.114 102.753C167.293 102.574 167.507 102.485 167.754 102.485C167.993 102.485 168.198 102.574 168.369 102.753C168.539 102.933 168.625 103.146 168.625 103.393C168.625 103.632 168.539 103.841 168.369 104.021C168.198 104.191 167.993 104.277 167.754 104.277ZM165.54 104.264C165.292 104.264 165.079 104.179 164.9 104.008C164.729 103.829 164.644 103.62 164.644 103.381C164.644 103.133 164.729 102.92 164.9 102.741C165.079 102.561 165.292 102.472 165.54 102.472C165.779 102.472 165.984 102.561 166.154 102.741C166.325 102.92 166.41 103.133 166.41 103.381C166.41 103.62 166.325 103.829 166.154 104.008C165.984 104.179 165.779 104.264 165.54 104.264ZM173.745 111.304C172.951 111.304 172.337 111.223 171.902 111.061C171.475 110.899 171.177 110.647 171.006 110.305C170.835 109.956 170.737 109.516 170.711 108.987L170.443 101.87H172.235L172.503 108.129C172.521 108.522 172.563 108.816 172.631 109.013C172.7 109.209 172.828 109.341 173.015 109.409C173.212 109.478 173.498 109.512 173.873 109.512C174.197 109.512 174.428 109.597 174.564 109.768C174.709 109.93 174.782 110.135 174.782 110.382C174.782 110.647 174.692 110.869 174.513 111.048C174.334 111.219 174.078 111.304 173.745 111.304ZM173.762 111.304L173.89 109.525C174.599 109.525 175.166 109.52 175.593 109.512C176.028 109.503 176.365 109.486 176.604 109.461C176.852 109.427 177.035 109.388 177.154 109.345C177.274 109.294 177.376 109.239 177.462 109.179C177.564 109.102 177.649 109 177.718 108.872C177.794 108.735 177.854 108.556 177.897 108.334C177.94 108.112 177.961 107.835 177.961 107.502C177.961 107.084 177.922 106.734 177.846 106.453C177.777 106.163 177.675 105.945 177.538 105.8C177.41 105.655 177.253 105.582 177.065 105.582C176.928 105.582 176.8 105.629 176.681 105.723C176.561 105.808 176.463 105.928 176.386 106.081C176.31 106.235 176.271 106.41 176.271 106.606C176.271 106.717 176.301 106.815 176.361 106.901C176.421 106.986 176.514 107.05 176.642 107.093C176.77 107.135 176.933 107.157 177.129 107.157C177.317 107.157 177.513 107.135 177.718 107.093C177.931 107.041 178.127 106.973 178.306 106.888L178.358 108.411C178.221 108.505 178.063 108.59 177.884 108.667C177.705 108.744 177.513 108.804 177.308 108.846C177.112 108.88 176.911 108.897 176.706 108.897C176.254 108.897 175.862 108.838 175.529 108.718C175.205 108.59 174.953 108.385 174.774 108.104C174.594 107.822 174.505 107.438 174.505 106.952C174.505 106.576 174.569 106.205 174.697 105.838C174.825 105.463 175.008 105.126 175.247 104.827C175.486 104.52 175.768 104.277 176.092 104.097C176.416 103.91 176.775 103.816 177.167 103.816C177.748 103.816 178.225 103.987 178.601 104.328C178.985 104.661 179.266 105.113 179.446 105.685C179.633 106.248 179.727 106.875 179.727 107.566C179.727 108.172 179.638 108.701 179.458 109.153C179.279 109.597 179.066 109.947 178.818 110.203C178.614 110.416 178.379 110.596 178.114 110.741C177.85 110.886 177.526 111.001 177.142 111.086C176.766 111.163 176.301 111.219 175.746 111.253C175.2 111.287 174.539 111.304 173.762 111.304ZM177.142 102.625C176.877 102.625 176.651 102.536 176.463 102.357C176.284 102.177 176.194 101.956 176.194 101.691C176.194 101.427 176.284 101.2 176.463 101.013C176.651 100.825 176.877 100.731 177.142 100.731C177.398 100.731 177.615 100.825 177.794 101.013C177.982 101.2 178.076 101.427 178.076 101.691C178.076 101.956 177.982 102.177 177.794 102.357C177.615 102.536 177.398 102.625 177.142 102.625ZM180.042 114.184L179.389 112.545C180.123 112.289 180.716 112.008 181.169 111.701C181.629 111.393 181.967 111.065 182.18 110.715C182.402 110.365 182.513 110.003 182.513 109.627C182.513 109.388 182.479 109.141 182.41 108.885C182.342 108.62 182.244 108.343 182.116 108.053C181.996 107.763 181.851 107.46 181.681 107.144L183.357 106.337C183.656 106.909 183.887 107.455 184.049 107.976C184.219 108.496 184.305 108.983 184.305 109.435C184.305 109.853 184.249 110.254 184.138 110.638C184.036 111.022 183.874 111.381 183.652 111.713C183.439 112.055 183.161 112.375 182.82 112.673C182.479 112.972 182.077 113.245 181.617 113.493C181.156 113.749 180.631 113.979 180.042 114.184ZM186.099 111.24L185.83 101.87H187.622L187.891 111.24H186.099ZM186.022 115.195L185.805 114.299C186.103 114.248 186.325 114.205 186.47 114.171C186.624 114.137 186.786 114.099 186.957 114.056L186.829 114.376C186.607 114.299 186.393 114.145 186.189 113.915C185.992 113.693 185.894 113.437 185.894 113.147C185.894 112.84 185.962 112.592 186.099 112.405C186.236 112.217 186.41 112.08 186.624 111.995C186.837 111.91 187.059 111.867 187.289 111.867C187.417 111.867 187.537 111.876 187.648 111.893C187.767 111.91 187.874 111.935 187.968 111.969L187.865 112.891C187.78 112.874 187.695 112.857 187.609 112.84C187.524 112.823 187.43 112.814 187.328 112.814C187.217 112.814 187.114 112.848 187.021 112.917C186.935 112.993 186.893 113.083 186.893 113.185C186.893 113.331 186.944 113.459 187.046 113.569C187.149 113.68 187.268 113.766 187.405 113.825C187.55 113.894 187.669 113.932 187.763 113.941L187.059 114.017C187.289 113.958 187.507 113.894 187.712 113.825C187.917 113.766 188.109 113.702 188.288 113.633L188.544 114.491C188.33 114.568 188.079 114.649 187.789 114.734C187.507 114.828 187.213 114.913 186.905 114.99C186.607 115.067 186.312 115.135 186.022 115.195ZM197.515 111.509L197.848 109.717C198.658 109.725 199.311 109.704 199.806 109.653C200.309 109.593 200.689 109.486 200.945 109.333C201.21 109.171 201.38 108.944 201.457 108.654C201.542 108.356 201.572 107.976 201.547 107.515L201.265 101.87H203.057L203.339 107.605C203.364 108.117 203.424 108.509 203.518 108.782C203.612 109.055 203.753 109.247 203.94 109.358C204.128 109.461 204.376 109.512 204.683 109.512C204.998 109.512 205.225 109.597 205.361 109.768C205.506 109.93 205.579 110.135 205.579 110.382C205.579 110.647 205.489 110.869 205.31 111.048C205.131 111.219 204.879 111.304 204.555 111.304C204.179 111.304 203.842 111.257 203.544 111.163C203.245 111.069 202.997 110.907 202.801 110.677C202.605 110.438 202.473 110.118 202.404 109.717H202.98C202.784 110.135 202.515 110.468 202.174 110.715C201.841 110.963 201.44 111.142 200.971 111.253C200.51 111.372 199.989 111.445 199.409 111.47C198.829 111.504 198.197 111.517 197.515 111.509ZM196.9 108.475L196.568 107.208C196.866 107.131 197.109 107.063 197.297 107.003C197.493 106.943 197.638 106.884 197.732 106.824C197.826 106.764 197.873 106.704 197.873 106.645C197.873 106.568 197.835 106.487 197.758 106.401C197.681 106.316 197.596 106.218 197.502 106.107C197.408 105.996 197.323 105.872 197.246 105.736C197.169 105.599 197.131 105.441 197.131 105.262C197.131 105.049 197.19 104.848 197.31 104.661C197.429 104.464 197.621 104.277 197.886 104.097C198.159 103.91 198.517 103.726 198.961 103.547L199.512 104.686C199.153 104.831 198.91 104.959 198.782 105.07C198.662 105.173 198.603 105.271 198.603 105.365C198.603 105.441 198.641 105.531 198.718 105.633C198.795 105.736 198.88 105.851 198.974 105.979C199.076 106.099 199.166 106.235 199.243 106.389C199.32 106.534 199.358 106.692 199.358 106.862C199.358 106.999 199.328 107.14 199.268 107.285C199.217 107.43 199.106 107.571 198.936 107.707C198.773 107.844 198.53 107.976 198.206 108.104C197.882 108.232 197.446 108.356 196.9 108.475ZM197.515 111.509C196.593 111.509 195.812 111.436 195.172 111.291C194.541 111.155 194.025 110.958 193.624 110.702C193.231 110.438 192.945 110.131 192.766 109.781C192.587 109.431 192.497 109.047 192.497 108.629C192.497 108.356 192.518 108.083 192.561 107.809C192.612 107.528 192.672 107.255 192.74 106.99C192.817 106.726 192.885 106.487 192.945 106.273L194.545 106.645C194.511 106.798 194.473 106.965 194.43 107.144C194.387 107.323 194.353 107.498 194.328 107.669C194.302 107.831 194.289 107.98 194.289 108.117C194.289 108.432 194.4 108.714 194.622 108.961C194.852 109.2 195.228 109.388 195.748 109.525C196.269 109.653 196.969 109.717 197.848 109.717L198.104 111.099L197.515 111.509ZM204.55 111.304L204.678 109.512C205.053 109.512 205.348 109.486 205.561 109.435C205.783 109.384 205.941 109.29 206.035 109.153C206.129 109.008 206.176 108.804 206.176 108.539C206.176 108.3 206.141 108.014 206.073 107.681C206.013 107.349 205.932 107.003 205.83 106.645C205.728 106.286 205.625 105.958 205.523 105.659L207.289 105.173C207.392 105.463 207.494 105.8 207.596 106.184C207.699 106.568 207.784 106.965 207.852 107.374C207.929 107.775 207.968 108.164 207.968 108.539C207.968 109.008 207.908 109.405 207.788 109.729C207.669 110.045 207.503 110.31 207.289 110.523C207.084 110.728 206.837 110.89 206.547 111.009C206.265 111.12 205.954 111.197 205.612 111.24C205.271 111.283 204.917 111.304 204.55 111.304ZM206.393 104.11C206.129 104.11 205.903 104.021 205.715 103.841C205.536 103.662 205.446 103.44 205.446 103.176C205.446 102.911 205.536 102.685 205.715 102.497C205.903 102.31 206.129 102.216 206.393 102.216C206.649 102.216 206.867 102.31 207.046 102.497C207.234 102.685 207.328 102.911 207.328 103.176C207.328 103.44 207.234 103.662 207.046 103.841C206.867 104.021 206.649 104.11 206.393 104.11ZM212.67 111.304C211.876 111.304 211.262 111.223 210.827 111.061C210.4 110.899 210.102 110.647 209.931 110.305C209.76 109.956 209.662 109.516 209.636 108.987L209.368 101.87H211.16L211.428 108.129C211.446 108.522 211.488 108.816 211.556 109.013C211.625 109.209 211.753 109.341 211.94 109.409C212.137 109.478 212.423 109.512 212.798 109.512C213.122 109.512 213.353 109.597 213.489 109.768C213.634 109.93 213.707 110.135 213.707 110.382C213.707 110.647 213.617 110.869 213.438 111.048C213.259 111.219 213.003 111.304 212.67 111.304ZM212.688 111.304L212.816 109.512H214.608C214.906 109.512 215.132 109.495 215.286 109.461C215.448 109.427 215.559 109.375 215.619 109.307C215.678 109.23 215.708 109.141 215.708 109.038C215.708 108.885 215.64 108.705 215.504 108.501C215.376 108.296 215.205 108.083 214.992 107.861C214.787 107.639 214.569 107.417 214.339 107.195C214.108 106.965 213.886 106.751 213.673 106.555C213.468 106.359 213.298 106.188 213.161 106.043C213.033 105.889 212.969 105.779 212.969 105.71C212.969 105.471 212.982 105.284 213.008 105.147C213.033 105.002 213.067 104.887 213.11 104.801C213.161 104.716 213.217 104.644 213.276 104.584C213.421 104.439 213.639 104.277 213.929 104.097C214.219 103.91 214.561 103.713 214.953 103.509C215.354 103.295 215.802 103.073 216.297 102.843C216.792 102.604 217.317 102.357 217.872 102.101L218.601 103.662C218.038 103.91 217.534 104.14 217.091 104.353C216.656 104.558 216.263 104.75 215.913 104.929C215.572 105.1 215.265 105.262 214.992 105.416C214.727 105.569 214.488 105.715 214.275 105.851L214.403 104.904C214.77 105.22 215.102 105.518 215.401 105.8C215.7 106.081 215.977 106.363 216.233 106.645C216.489 106.926 216.728 107.216 216.95 107.515C217.18 107.814 217.402 108.138 217.616 108.488C217.803 108.787 217.995 109.008 218.192 109.153C218.396 109.299 218.593 109.397 218.78 109.448C218.977 109.491 219.152 109.512 219.305 109.512C219.629 109.512 219.86 109.597 219.996 109.768C220.141 109.93 220.214 110.135 220.214 110.382C220.214 110.647 220.124 110.869 219.945 111.048C219.766 111.219 219.51 111.304 219.177 111.304C218.896 111.304 218.593 111.257 218.268 111.163C217.944 111.061 217.641 110.899 217.36 110.677C217.078 110.455 216.865 110.152 216.72 109.768L217.411 109.819C217.283 110.092 217.129 110.327 216.95 110.523C216.779 110.711 216.574 110.864 216.336 110.984C216.097 111.095 215.824 111.176 215.516 111.227C215.209 111.278 214.864 111.304 214.48 111.304H212.688ZM219.188 111.304L219.316 109.512C219.512 109.512 219.678 109.465 219.815 109.371C219.96 109.269 220.109 109.102 220.263 108.872C220.416 108.633 220.596 108.313 220.8 107.912C221.056 107.4 221.321 106.999 221.594 106.709C221.876 106.419 222.161 106.214 222.452 106.094C222.75 105.966 223.049 105.902 223.348 105.902C223.723 105.902 224.073 105.983 224.397 106.145C224.721 106.308 225.003 106.529 225.242 106.811C225.481 107.084 225.664 107.4 225.792 107.758C225.929 108.108 225.997 108.471 225.997 108.846C225.997 109.299 225.899 109.708 225.703 110.075C225.515 110.433 225.25 110.719 224.909 110.933C224.576 111.137 224.192 111.24 223.757 111.24C223.39 111.24 222.964 111.176 222.477 111.048C221.991 110.92 221.479 110.651 220.941 110.241L221.594 108.693C221.978 108.957 222.336 109.149 222.669 109.269C223.01 109.388 223.292 109.448 223.514 109.448C223.685 109.448 223.825 109.431 223.936 109.397C224.047 109.363 224.128 109.307 224.18 109.23C224.231 109.153 224.256 109.051 224.256 108.923C224.256 108.744 224.214 108.56 224.128 108.373C224.043 108.185 223.928 108.027 223.783 107.899C223.646 107.763 223.484 107.694 223.296 107.694C223.117 107.694 222.964 107.763 222.836 107.899C222.716 108.027 222.597 108.215 222.477 108.462C222.366 108.701 222.23 108.983 222.068 109.307C221.871 109.7 221.679 110.028 221.492 110.293C221.304 110.549 221.103 110.753 220.89 110.907C220.685 111.052 220.442 111.155 220.16 111.214C219.887 111.274 219.563 111.304 219.188 111.304ZM230.669 111.304C229.876 111.304 229.261 111.223 228.826 111.061C228.4 110.899 228.101 110.647 227.93 110.305C227.76 109.956 227.661 109.516 227.636 108.987L227.393 102.766H229.185L229.428 108.129C229.445 108.522 229.488 108.816 229.556 109.013C229.624 109.209 229.752 109.341 229.94 109.409C230.136 109.478 230.422 109.512 230.797 109.512C231.122 109.512 231.352 109.597 231.489 109.768C231.634 109.93 231.706 110.135 231.706 110.382C231.706 110.647 231.617 110.869 231.437 111.048C231.258 111.219 231.002 111.304 230.669 111.304ZM227.021 101.947L226.804 101.051C227.103 101 227.324 100.957 227.469 100.923C227.623 100.889 227.785 100.851 227.956 100.808L227.828 101.128C227.606 101.051 227.393 100.902 227.188 100.68C226.992 100.449 226.893 100.189 226.893 99.8991C226.893 99.5919 226.962 99.3444 227.098 99.1567C227.235 98.9689 227.41 98.8324 227.623 98.7471C227.836 98.6617 228.058 98.6191 228.289 98.6191C228.417 98.6191 228.536 98.6276 228.647 98.6447C228.767 98.6617 228.873 98.6873 228.967 98.7215L228.865 99.6431C228.779 99.626 228.694 99.6089 228.609 99.5919C228.523 99.5748 228.429 99.5663 228.327 99.5663C228.216 99.5663 228.114 99.6047 228.02 99.6815C227.935 99.7497 227.892 99.8351 227.892 99.9375C227.892 100.083 227.943 100.211 228.045 100.321C228.148 100.432 228.267 100.522 228.404 100.59C228.549 100.65 228.668 100.684 228.762 100.693L228.058 100.769C228.289 100.71 228.506 100.65 228.711 100.59C228.916 100.522 229.108 100.454 229.287 100.385L229.543 101.243C229.33 101.32 229.078 101.405 228.788 101.499C228.506 101.584 228.212 101.665 227.905 101.742C227.606 101.819 227.312 101.887 227.021 101.947ZM230.688 111.304L230.816 109.512C231.191 109.512 231.485 109.486 231.699 109.435C231.921 109.384 232.078 109.29 232.172 109.153C232.266 109.008 232.313 108.804 232.313 108.539C232.313 108.3 232.279 108.014 232.211 107.681C232.151 107.349 232.07 107.003 231.968 106.645C231.865 106.286 231.763 105.958 231.66 105.659L233.427 105.173C233.529 105.463 233.632 105.8 233.734 106.184C233.836 106.568 233.922 106.965 233.99 107.374C234.067 107.775 234.105 108.164 234.105 108.539C234.105 109.008 234.045 109.405 233.926 109.729C233.806 110.045 233.64 110.31 233.427 110.523C233.222 110.728 232.974 110.89 232.684 111.009C232.403 111.12 232.091 111.197 231.75 111.24C231.409 111.283 231.054 111.304 230.688 111.304ZM232.262 114.248C232.014 114.248 231.801 114.163 231.622 113.992C231.451 113.821 231.366 113.612 231.366 113.365C231.366 113.117 231.451 112.9 231.622 112.712C231.801 112.533 232.014 112.443 232.262 112.443C232.509 112.443 232.718 112.533 232.889 112.712C233.068 112.9 233.158 113.117 233.158 113.365C233.158 113.612 233.068 113.821 232.889 113.992C232.718 114.163 232.509 114.248 232.262 114.248Z" fill="white"/>
<path d="M23.7445 139.526C23.7445 139.73 23.8149 139.9 23.9558 140.038C24.0966 140.173 24.2688 140.24 24.4722 140.24C24.6725 140.24 24.8431 140.171 24.984 140.033C25.1279 139.896 25.1999 139.727 25.1999 139.526C25.1999 139.326 25.1279 139.157 24.984 139.019C24.8431 138.881 24.6725 138.813 24.4722 138.813C24.2719 138.813 24.0997 138.881 23.9558 139.019C23.8149 139.157 23.7445 139.326 23.7445 139.526ZM31.4556 135.395L30.7419 136.113L31.4556 136.841L32.1786 136.113L31.4556 135.395ZM29.8874 135.395L29.1691 136.113L29.8874 136.841L30.6105 136.113L29.8874 135.395ZM33.3993 137.16C33.4056 137.295 33.4134 137.448 33.4228 137.62C33.4353 137.792 33.4416 137.95 33.4416 138.094C33.4416 138.354 33.3524 138.562 33.1739 138.719C32.9955 138.875 32.7373 138.989 32.3993 139.061C32.0644 139.13 31.6575 139.165 31.1786 139.165H30.3945C29.9876 139.165 29.6214 139.143 29.2959 139.099C28.9735 139.052 28.6965 138.977 28.4648 138.874C28.2364 138.77 28.0595 138.631 27.9343 138.456C27.8122 138.28 27.7512 138.063 27.7512 137.803C27.7512 137.647 27.7716 137.482 27.8122 137.31C27.8561 137.135 27.903 136.977 27.9531 136.836L27.0517 136.498C26.9671 136.705 26.8967 136.925 26.8404 137.16C26.7872 137.392 26.7606 137.629 26.7606 137.874C26.7606 138.306 26.8419 138.672 27.0047 138.972C27.1706 139.27 27.41 139.512 27.723 139.7C28.036 139.888 28.4163 140.025 28.8639 140.113C29.3146 140.198 29.8248 140.24 30.3945 140.24H31.1786C31.6387 140.24 32.0331 140.213 32.3617 140.16C32.6935 140.104 32.9783 140.018 33.2162 139.902C33.4541 139.786 33.6622 139.633 33.8406 139.442C33.9909 139.708 34.1818 139.908 34.4134 140.043C34.6482 140.174 34.9424 140.24 35.2961 140.24H35.3994V139.165H35.2961C35.0144 139.165 34.8062 139.082 34.6717 138.916C34.5371 138.747 34.4604 138.526 34.4416 138.254L34.3524 137.043L33.3993 137.16ZM35.6924 139.165V140.24H36.068V139.165H35.6924ZM37.3919 140.921L36.6783 141.639L37.3919 142.367L38.115 141.639L37.3919 140.921ZM35.8238 140.921L35.1055 141.639L35.8238 142.367L36.5468 141.639L35.8238 140.921ZM36.4811 140.24C36.9788 140.24 37.3669 140.152 37.6455 139.977C37.9272 139.799 38.1244 139.554 38.237 139.245C38.3529 138.932 38.4108 138.57 38.4108 138.16C38.4108 137.91 38.3935 137.639 38.3591 137.348C38.3247 137.057 38.2683 136.772 38.1901 136.493L37.2041 136.756C37.2855 137.06 37.3434 137.346 37.3779 137.615C37.4154 137.881 37.4342 138.102 37.4342 138.277C37.4342 138.581 37.3622 138.805 37.2182 138.949C37.0774 139.093 36.8285 139.165 36.4717 139.165H35.9647V140.24H36.4811ZM40.0042 133.676V138.174C40.0042 138.878 40.1576 139.399 40.4644 139.738C40.7711 140.072 41.2469 140.24 41.8916 140.24H42.0043V139.165H41.8916C41.5724 139.165 41.347 139.091 41.2156 138.944C41.0841 138.794 41.0184 138.521 41.0184 138.127V133.676H40.0042ZM42.302 139.165V140.24H42.5273V139.165H42.302ZM43.2692 140.888L42.518 141.639L43.2692 142.39L44.0204 141.639L43.2692 140.888ZM42.9264 140.24C43.4241 140.24 43.8122 140.152 44.0908 139.977C44.3725 139.799 44.5697 139.554 44.6824 139.245C44.7982 138.932 44.8561 138.57 44.8561 138.16C44.8561 137.91 44.8389 137.639 44.8044 137.348C44.77 137.057 44.7137 136.772 44.6354 136.493L43.6495 136.756C43.7308 137.06 43.7887 137.346 43.8232 137.615C43.8607 137.881 43.8795 138.102 43.8795 138.277C43.8795 138.581 43.8075 138.805 43.6635 138.949C43.5227 139.093 43.2739 139.165 42.917 139.165H42.41V140.24H42.9264ZM49.4281 133.676V138.174C49.4281 138.878 49.5814 139.399 49.8882 139.738C50.1949 140.072 50.6707 140.24 51.3155 140.24H51.4282V139.165H51.3155C50.9962 139.165 50.7709 139.091 50.6394 138.944C50.5079 138.794 50.4422 138.521 50.4422 138.127V133.676H49.4281ZM54.7306 134.094L53.9794 134.845L54.7306 135.597L55.4818 134.845L54.7306 134.094ZM54.7447 137.357C54.8949 137.357 55.0812 137.367 55.3034 137.385C55.5256 137.404 55.7416 137.445 55.9513 137.507C55.823 137.658 55.6884 137.805 55.5476 137.949C55.4098 138.093 55.2799 138.221 55.1579 138.334C55.0358 138.446 54.9356 138.536 54.8574 138.601C54.7823 138.667 54.7447 138.7 54.7447 138.7C54.7447 138.7 54.6805 138.644 54.5522 138.531C54.4239 138.415 54.2674 138.266 54.0827 138.085C53.898 137.903 53.7196 137.711 53.5475 137.507C53.7572 137.445 53.9732 137.404 54.1954 137.385C54.4176 137.367 54.6007 137.357 54.7447 137.357ZM54.7447 136.366C54.5006 136.366 54.2455 136.385 53.9794 136.423C53.7134 136.46 53.4645 136.517 53.2329 136.592C53.0013 136.667 52.8135 136.761 52.6695 136.874C52.5287 136.986 52.4582 137.119 52.4582 137.273C52.4582 137.348 52.488 137.443 52.5474 137.559C52.6069 137.675 52.6852 137.802 52.7822 137.939C52.8792 138.074 52.9841 138.212 53.0968 138.352C53.2126 138.49 53.3284 138.62 53.4442 138.742C53.5631 138.864 53.6711 138.969 53.7681 139.057C53.6429 139.091 53.4958 139.116 53.3268 139.132C53.1609 139.147 52.9997 139.157 52.8432 139.16C52.6899 139.163 52.5678 139.165 52.477 139.165H51.7399V140.24H52.4723C52.7039 140.24 52.9559 140.223 53.2282 140.188C53.5037 140.151 53.7744 140.096 54.0405 140.024C54.3065 139.949 54.5413 139.856 54.7447 139.747C55.0483 139.913 55.3629 140.036 55.6884 140.118C56.0139 140.199 56.3488 140.24 56.6931 140.24H57.4162V139.165H56.6884C56.5539 139.165 56.4052 139.16 56.2424 139.151C56.0797 139.138 55.9091 139.108 55.7307 139.061C55.8246 138.971 55.9294 138.864 56.0452 138.742C56.1642 138.62 56.2815 138.49 56.3974 138.352C56.5132 138.212 56.6196 138.074 56.7166 137.939C56.8136 137.805 56.8903 137.68 56.9467 137.564C57.0061 137.445 57.0359 137.348 57.0359 137.273C57.0359 137.119 56.9639 136.986 56.8199 136.874C56.6759 136.761 56.4881 136.667 56.2565 136.592C56.0249 136.517 55.776 136.46 55.51 136.423C55.2439 136.385 54.9888 136.366 54.7447 136.366ZM57.7044 139.165V140.24H58.08V139.165H57.7044ZM59.404 140.921L58.6904 141.639L59.404 142.367L60.1271 141.639L59.404 140.921ZM57.8359 140.921L57.1176 141.639L57.8359 142.367L58.5589 141.639L57.8359 140.921ZM59.39 137.174C59.4025 137.321 59.4119 137.471 59.4181 137.625C59.4275 137.778 59.4322 137.936 59.4322 138.099C59.4322 138.443 59.3555 138.708 59.2022 138.892C59.0519 139.074 58.789 139.165 58.4134 139.165H57.9721V140.24H58.4134C58.7107 140.24 58.994 140.184 59.2632 140.071C59.5355 139.958 59.7593 139.791 59.9346 139.568C60.0253 139.709 60.1318 139.83 60.2538 139.93C60.379 140.027 60.5261 140.104 60.6952 140.16C60.8642 140.213 61.0598 140.24 61.282 140.24H61.3853V139.165H61.2914C61.1036 139.165 60.9471 139.129 60.8219 139.057C60.6999 138.982 60.606 138.877 60.5402 138.742C60.4745 138.604 60.4369 138.445 60.4276 138.263L60.343 137.057L59.39 137.174ZM64.7488 137.7C65.0055 137.7 65.2058 137.791 65.3498 137.972C65.4938 138.151 65.5658 138.374 65.5658 138.644C65.5658 138.841 65.5173 138.999 65.4202 139.118C65.3263 139.237 65.1777 139.296 64.9742 139.296C64.8897 139.296 64.7942 139.279 64.6878 139.245C64.5814 139.21 64.4671 139.155 64.3451 139.08C64.2606 139.03 64.1729 138.969 64.0821 138.897C63.9914 138.825 63.8975 138.742 63.8004 138.648C63.8693 138.501 63.9491 138.354 64.0399 138.207C64.1338 138.06 64.2386 137.939 64.3545 137.845C64.4734 137.748 64.6049 137.7 64.7488 137.7ZM64.9742 140.348C65.3122 140.348 65.5971 140.276 65.8287 140.132C66.0603 139.985 66.2356 139.781 66.3545 139.522C66.4735 139.259 66.5329 138.95 66.5329 138.597C66.5329 138.246 66.4578 137.925 66.3076 137.634C66.1605 137.34 65.9508 137.105 65.6785 136.93C65.4093 136.755 65.09 136.667 64.7207 136.667C64.4358 136.667 64.1917 136.726 63.9882 136.845C63.7879 136.964 63.6142 137.119 63.4671 137.31C63.32 137.501 63.187 137.703 63.068 137.916C62.9522 138.129 62.8364 138.331 62.7206 138.521C62.6079 138.709 62.4843 138.864 62.3497 138.986C62.2151 139.105 62.0555 139.165 61.8708 139.165H61.6971V140.24H61.8943C62.1259 140.24 62.32 140.213 62.4765 140.16C62.633 140.104 62.7707 140.025 62.8896 139.925C63.0117 139.822 63.1353 139.703 63.2605 139.568C63.4483 139.731 63.633 139.871 63.8145 139.986C63.9961 140.102 64.1807 140.191 64.3685 140.254C64.5595 140.317 64.7614 140.348 64.9742 140.348ZM74.0299 133.38V140.24H72.8984V134.723L71.2223 135.291V134.357L73.8938 133.38H74.0299ZM81.342 136.249V137.367C81.342 138.08 81.2496 138.655 81.0649 139.09C80.8803 139.525 80.6205 139.841 80.2856 140.038C79.9507 140.235 79.5578 140.334 79.1071 140.334C78.6595 140.334 78.2667 140.235 77.9287 140.038C77.5906 139.841 77.3277 139.525 77.1399 139.09C76.9521 138.655 76.8582 138.08 76.8582 137.367V136.249C76.8582 135.535 76.9506 134.964 77.1352 134.535C77.323 134.103 77.5844 133.792 77.9193 133.601C78.2573 133.407 78.6501 133.31 79.0977 133.31C79.5485 133.31 79.9413 133.407 80.2762 133.601C80.6142 133.792 80.8756 134.103 81.0603 134.535C81.2481 134.964 81.342 135.535 81.342 136.249ZM80.2105 137.526V136.08C80.2105 135.623 80.1666 135.257 80.079 134.981C79.9945 134.706 79.8693 134.509 79.7034 134.39C79.5375 134.268 79.3356 134.207 79.0977 134.207C78.863 134.207 78.6627 134.268 78.4968 134.39C78.334 134.509 78.2088 134.706 78.1212 134.981C78.0367 135.257 77.9944 135.623 77.9944 136.08V137.526C77.9944 137.983 78.0367 138.352 78.1212 138.634C78.2088 138.913 78.3356 139.116 78.5015 139.245C78.6705 139.37 78.8724 139.432 79.1071 139.432C79.3481 139.432 79.55 139.37 79.7128 139.245C79.8755 139.116 79.9992 138.913 80.0837 138.634C80.1682 138.352 80.2105 137.983 80.2105 137.526ZM89.3601 139.165C88.9532 139.165 88.587 139.143 88.2615 139.099C87.9359 139.052 87.6589 138.977 87.4304 138.874C87.202 138.77 87.0251 138.631 86.8999 138.456C86.7778 138.28 86.7168 138.063 86.7168 137.803C86.7168 137.647 86.7371 137.482 86.7778 137.31C86.8217 137.135 86.8686 136.977 86.9187 136.836L86.0172 136.498C85.9327 136.705 85.8623 136.925 85.806 137.16C85.7528 137.392 85.7262 137.629 85.7262 137.874C85.7262 138.306 85.8091 138.672 85.975 138.972C86.1409 139.273 86.3803 139.517 86.6933 139.705C87.0063 139.889 87.3866 140.025 87.8342 140.113C88.2849 140.198 88.7936 140.24 89.3601 140.24H90.116C90.501 140.24 90.8453 140.223 91.1489 140.188C91.4556 140.151 91.7311 140.08 91.9752 139.977C92.2194 139.874 92.4416 139.725 92.6419 139.531C92.7515 139.775 92.9111 139.955 93.1208 140.071C93.3305 140.184 93.6294 140.24 94.0175 140.24H94.1819V139.165H94.0082C93.7609 139.165 93.5793 139.116 93.4635 139.019C93.3509 138.919 93.2804 138.772 93.2523 138.578C93.2241 138.384 93.21 138.144 93.21 137.859V133.676H92.1959V137.874C92.1959 138.102 92.1787 138.299 92.1442 138.465C92.1098 138.628 92.0253 138.761 91.8907 138.864C91.7592 138.964 91.5495 139.04 91.2616 139.09C90.9767 139.14 90.5839 139.165 90.0831 139.165H89.3601ZM88.6324 137.179V137.775C88.7482 137.794 88.8687 137.809 88.9939 137.822C89.1191 137.831 89.2427 137.836 89.3648 137.836C89.587 137.836 89.7936 137.813 89.9845 137.766C90.1786 137.716 90.3351 137.631 90.454 137.512C90.5761 137.393 90.6371 137.227 90.6371 137.014C90.6371 136.914 90.6199 136.83 90.5855 136.761C90.5542 136.692 90.5104 136.631 90.454 136.578C90.3695 136.493 90.2662 136.428 90.1442 136.381C90.0221 136.334 89.9016 136.298 89.7826 136.273C89.6637 136.248 89.5635 136.223 89.4822 136.197C89.4039 136.172 89.3648 136.138 89.3648 136.094C89.3648 136.028 89.4055 135.967 89.4869 135.911C89.5714 135.852 89.6747 135.8 89.7967 135.756C89.9219 135.709 90.0487 135.675 90.177 135.653C90.3054 135.628 90.4133 135.615 90.501 135.615L90.4634 134.991C90.3069 134.991 90.1332 135.014 89.9423 135.061C89.7513 135.105 89.5682 135.174 89.393 135.268C89.2177 135.359 89.0737 135.476 88.961 135.62C88.8483 135.761 88.792 135.931 88.792 136.132C88.792 136.285 88.8343 136.409 88.9188 136.503C89.0064 136.597 89.1144 136.669 89.2427 136.719C89.371 136.769 89.4994 136.809 89.6277 136.841C89.7592 136.869 89.8672 136.897 89.9517 136.925C90.0393 136.95 90.0831 136.986 90.0831 137.033C90.0831 137.115 90.0127 137.171 89.8718 137.202C89.731 137.233 89.5682 137.249 89.3836 137.249C89.249 137.249 89.1128 137.243 88.9751 137.23C88.8405 137.215 88.7263 137.198 88.6324 137.179ZM94.4795 139.165V140.24H95.0288V139.165H94.4795ZM96.7848 134.404L96.0711 135.118L96.7848 135.845L97.5078 135.118L96.7848 134.404ZM95.2166 134.404L94.4983 135.118L95.2166 135.845L95.9397 135.118L95.2166 134.404ZM95.4467 140.24C95.9444 140.24 96.3325 140.152 96.6111 139.977C96.8928 139.799 97.09 139.554 97.2026 139.245C97.3184 138.932 97.3764 138.57 97.3764 138.16C97.3764 137.91 97.3591 137.639 97.3247 137.348C97.2903 137.057 97.2339 136.772 97.1557 136.493L96.1697 136.756C96.2511 137.06 96.309 137.346 96.3435 137.615C96.381 137.881 96.3998 138.102 96.3998 138.277C96.3998 138.581 96.3278 138.805 96.1838 138.949C96.043 139.093 95.7941 139.165 95.4373 139.165H94.9303V140.24H95.4467ZM99.984 133.676H98.9745V140.235H99.984V133.676ZM104.272 138.39C104.272 138.575 104.205 138.725 104.071 138.841C103.936 138.957 103.75 139.041 103.512 139.094C103.277 139.147 103.002 139.174 102.685 139.174C102.516 139.174 102.338 139.163 102.15 139.141C101.962 139.119 101.773 139.086 101.582 139.043V140.113C101.757 140.154 101.936 140.185 102.117 140.207C102.302 140.226 102.515 140.235 102.756 140.235C103.085 140.235 103.376 140.207 103.629 140.151C103.886 140.094 104.113 140.01 104.31 139.897C104.51 139.784 104.686 139.644 104.836 139.475C104.948 139.637 105.064 139.777 105.183 139.892C105.302 140.005 105.443 140.091 105.606 140.151C105.769 140.21 105.97 140.24 106.211 140.24H106.409V139.165H106.211C106.071 139.165 105.95 139.122 105.85 139.038C105.75 138.95 105.653 138.816 105.559 138.634C105.465 138.453 105.357 138.219 105.235 137.935L104.127 135.348L103.225 135.78L104.099 137.733C104.142 137.833 104.182 137.949 104.216 138.08C104.254 138.208 104.272 138.312 104.272 138.39ZM108.129 137.174C108.141 137.321 108.151 137.471 108.157 137.625C108.166 137.778 108.171 137.936 108.171 138.099C108.171 138.443 108.094 138.708 107.941 138.892C107.791 139.074 107.528 139.165 107.152 139.165H106.711V140.24H107.152C107.45 140.24 107.733 140.184 108.002 140.071C108.274 139.958 108.498 139.791 108.673 139.568C108.764 139.709 108.871 139.83 108.993 139.93C109.118 140.027 109.265 140.104 109.434 140.16C109.603 140.213 109.799 140.24 110.021 140.24H110.124V139.165H110.03C109.843 139.165 109.686 139.129 109.561 139.057C109.439 138.982 109.345 138.877 109.279 138.742C109.213 138.604 109.176 138.445 109.166 138.263L109.082 137.057L108.129 137.174ZM108.289 134.784L107.537 135.535L108.289 136.287L109.04 135.535L108.289 134.784ZM110.422 139.165V140.24H110.971V139.165H110.422ZM112.732 134.812L112.014 135.526L112.732 136.254L113.45 135.526L112.732 134.812ZM111.159 134.812L110.445 135.526L111.159 136.254L111.882 135.526L111.159 134.812ZM112.291 137.174C112.303 137.321 112.312 137.471 112.319 137.625C112.328 137.778 112.333 137.936 112.333 138.099C112.333 138.443 112.256 138.708 112.103 138.892C111.952 139.074 111.69 139.165 111.314 139.165H110.873V140.24H111.314C111.611 140.24 111.895 140.184 112.164 140.071C112.436 139.958 112.66 139.791 112.835 139.568C112.926 139.709 113.032 139.83 113.154 139.93C113.28 140.027 113.427 140.104 113.596 140.16C113.765 140.213 113.96 140.24 114.183 140.24H114.286V139.165H114.192C114.004 139.165 113.848 139.129 113.723 139.057C113.6 138.982 113.507 138.877 113.441 138.742C113.375 138.604 113.338 138.445 113.328 138.263L113.244 137.057L112.291 137.174ZM120.363 140.24C120.651 140.24 120.884 140.182 121.063 140.066C121.241 139.947 121.396 139.788 121.527 139.587C121.628 139.8 121.787 139.963 122.006 140.076C122.229 140.185 122.495 140.24 122.805 140.24H122.927V139.165H122.795C122.617 139.165 122.466 139.129 122.344 139.057C122.225 138.985 122.133 138.883 122.067 138.752C122.002 138.62 121.964 138.465 121.955 138.287L121.87 137.099L120.912 137.216C120.928 137.413 120.941 137.593 120.95 137.756C120.959 137.916 120.964 138.052 120.964 138.165C120.964 138.359 120.942 138.532 120.898 138.686C120.858 138.836 120.792 138.953 120.701 139.038C120.614 139.122 120.498 139.165 120.354 139.165C120.197 139.165 120.067 139.124 119.964 139.043C119.864 138.958 119.787 138.849 119.734 138.714C119.684 138.579 119.654 138.437 119.645 138.287L119.56 137.202L118.603 137.32C118.612 137.445 118.621 137.562 118.631 137.672C118.64 137.778 118.646 137.874 118.649 137.958C118.653 138.039 118.654 138.105 118.654 138.155C118.654 138.465 118.59 138.711 118.462 138.892C118.333 139.074 118.119 139.165 117.818 139.165C117.653 139.165 117.513 139.126 117.401 139.047C117.288 138.966 117.2 138.86 117.138 138.728C117.078 138.593 117.044 138.446 117.034 138.287L116.95 137.202L115.992 137.32C116.001 137.445 116.009 137.562 116.016 137.672C116.025 137.778 116.031 137.872 116.034 137.953C116.041 138.035 116.044 138.102 116.044 138.155C116.044 138.518 115.951 138.778 115.767 138.935C115.585 139.088 115.307 139.165 114.931 139.165H114.593V140.24H114.922C115.319 140.24 115.642 140.182 115.889 140.066C116.136 139.95 116.34 139.788 116.499 139.578C116.624 139.784 116.789 139.947 116.992 140.066C117.196 140.182 117.468 140.24 117.809 140.24C118.069 140.24 118.315 140.184 118.546 140.071C118.781 139.955 118.983 139.789 119.152 139.573C119.274 139.777 119.434 139.939 119.631 140.061C119.828 140.18 120.072 140.24 120.363 140.24ZM126.295 137.7C126.551 137.7 126.752 137.791 126.896 137.972C127.04 138.151 127.112 138.374 127.112 138.644C127.112 138.841 127.063 138.999 126.966 139.118C126.872 139.237 126.724 139.296 126.52 139.296C126.436 139.296 126.34 139.279 126.234 139.245C126.127 139.21 126.013 139.155 125.891 139.08C125.807 139.03 125.719 138.969 125.628 138.897C125.537 138.825 125.443 138.742 125.346 138.648C125.415 138.501 125.495 138.354 125.586 138.207C125.68 138.06 125.785 137.939 125.9 137.845C126.019 137.748 126.151 137.7 126.295 137.7ZM126.52 140.348C126.858 140.348 127.143 140.276 127.375 140.132C127.606 139.985 127.782 139.781 127.901 139.522C128.019 139.259 128.079 138.95 128.079 138.597C128.079 138.246 128.004 137.925 127.854 137.634C127.706 137.34 127.497 137.105 127.224 136.93C126.955 136.755 126.636 136.667 126.267 136.667C125.982 136.667 125.738 136.726 125.534 136.845C125.334 136.964 125.16 137.119 125.013 137.31C124.866 137.501 124.733 137.703 124.614 137.916C124.498 138.129 124.382 138.331 124.267 138.521C124.154 138.709 124.03 138.864 123.896 138.986C123.761 139.105 123.601 139.165 123.417 139.165H123.243V140.24H123.44C123.672 140.24 123.866 140.213 124.022 140.16C124.179 140.104 124.317 140.025 124.436 139.925C124.558 139.822 124.681 139.703 124.806 139.568C124.994 139.731 125.179 139.871 125.361 139.986C125.542 140.102 125.727 140.191 125.915 140.254C126.105 140.317 126.307 140.348 126.52 140.348ZM138.661 133.944L137.909 134.695L138.661 135.446L139.412 134.695L138.661 133.944ZM138.707 137.132C138.82 137.132 138.938 137.174 139.06 137.259C139.185 137.34 139.291 137.443 139.379 137.568C139.467 137.69 139.51 137.809 139.51 137.925C139.51 138.06 139.471 138.196 139.393 138.334C139.318 138.468 139.219 138.59 139.097 138.7C138.978 138.806 138.851 138.891 138.717 138.953C138.604 138.894 138.487 138.809 138.365 138.7C138.246 138.59 138.144 138.468 138.06 138.334C137.978 138.199 137.937 138.066 137.937 137.935C137.937 137.813 137.98 137.69 138.064 137.568C138.149 137.443 138.25 137.34 138.369 137.259C138.488 137.174 138.601 137.132 138.707 137.132ZM136.036 139.165C135.629 139.165 135.263 139.143 134.937 139.099C134.615 139.052 134.338 138.977 134.106 138.874C133.878 138.77 133.701 138.631 133.576 138.456C133.454 138.28 133.393 138.063 133.393 137.803C133.393 137.647 133.413 137.482 133.454 137.31C133.498 137.135 133.545 136.977 133.595 136.836L132.693 136.498C132.609 136.705 132.538 136.925 132.482 137.16C132.429 137.392 132.402 137.629 132.402 137.874C132.402 138.306 132.483 138.672 132.646 138.972C132.812 139.27 133.052 139.512 133.365 139.7C133.678 139.888 134.058 140.025 134.505 140.113C134.956 140.198 135.466 140.24 136.036 140.24H136.491C136.607 140.24 136.754 140.232 136.933 140.216C137.114 140.201 137.31 140.179 137.52 140.151C137.732 140.122 137.942 140.086 138.149 140.043C138.355 139.999 138.54 139.947 138.703 139.888C138.919 139.963 139.139 140.027 139.365 140.08C139.59 140.133 139.803 140.174 140.003 140.202C140.204 140.227 140.376 140.24 140.52 140.24H141.046V139.165H140.595C140.542 139.165 140.482 139.165 140.416 139.165C140.354 139.165 140.285 139.165 140.21 139.165C140.138 139.162 140.058 139.157 139.97 139.151C140.077 139.019 140.168 138.889 140.243 138.761C140.321 138.629 140.38 138.495 140.421 138.357C140.465 138.219 140.487 138.075 140.487 137.925C140.487 137.703 140.437 137.484 140.337 137.268C140.24 137.052 140.107 136.856 139.938 136.681C139.769 136.503 139.578 136.36 139.365 136.254C139.155 136.147 138.936 136.094 138.707 136.094C138.485 136.094 138.269 136.147 138.06 136.254C137.853 136.36 137.667 136.503 137.501 136.681C137.335 136.856 137.204 137.052 137.106 137.268C137.009 137.481 136.961 137.697 136.961 137.916C136.961 138.066 136.98 138.21 137.017 138.348C137.058 138.485 137.116 138.62 137.191 138.752C137.269 138.883 137.36 139.014 137.463 139.146C137.382 139.152 137.29 139.157 137.186 139.16C137.083 139.16 136.98 139.162 136.876 139.165C136.776 139.165 136.685 139.165 136.604 139.165C136.526 139.165 136.468 139.165 136.43 139.165H136.036ZM142.587 138.099C142.587 138.318 142.561 138.507 142.508 138.667C142.454 138.827 142.362 138.95 142.231 139.038C142.099 139.122 141.914 139.165 141.677 139.165H141.353V140.24H141.695C141.958 140.24 142.174 140.215 142.343 140.165C142.512 140.112 142.655 140.035 142.771 139.935C142.886 139.835 142.997 139.714 143.104 139.573C143.198 139.717 143.304 139.839 143.423 139.939C143.545 140.04 143.689 140.115 143.855 140.165C144.021 140.215 144.218 140.24 144.447 140.24H144.578V139.165H144.437C144.218 139.165 144.048 139.122 143.926 139.038C143.803 138.95 143.717 138.827 143.667 138.667C143.62 138.507 143.597 138.321 143.597 138.108V133.676H142.587V138.099ZM147.946 137.7C148.203 137.7 148.403 137.791 148.547 137.972C148.691 138.151 148.763 138.374 148.763 138.644C148.763 138.841 148.715 138.999 148.618 139.118C148.524 139.237 148.375 139.296 148.172 139.296C148.087 139.296 147.992 139.279 147.885 139.245C147.779 139.21 147.665 139.155 147.543 139.08C147.458 139.03 147.37 138.969 147.28 138.897C147.189 138.825 147.095 138.742 146.998 138.648C147.067 138.501 147.147 138.354 147.237 138.207C147.331 138.06 147.436 137.939 147.552 137.845C147.671 137.748 147.802 137.7 147.946 137.7ZM148.172 140.348C148.51 140.348 148.795 140.276 149.026 140.132C149.258 139.985 149.433 139.781 149.552 139.522C149.671 139.259 149.73 138.95 149.73 138.597C149.73 138.246 149.655 137.925 149.505 137.634C149.358 137.34 149.148 137.105 148.876 136.93C148.607 136.755 148.287 136.667 147.918 136.667C147.633 136.667 147.389 136.726 147.186 136.845C146.985 136.964 146.812 137.119 146.665 137.31C146.517 137.501 146.384 137.703 146.266 137.916C146.15 138.129 146.034 138.331 145.918 138.521C145.805 138.709 145.682 138.864 145.547 138.986C145.413 139.105 145.253 139.165 145.068 139.165H144.895V140.24H145.092C145.323 140.24 145.517 140.213 145.674 140.16C145.83 140.104 145.968 140.025 146.087 139.925C146.209 139.822 146.333 139.703 146.458 139.568C146.646 139.731 146.83 139.871 147.012 139.986C147.194 140.102 147.378 140.191 147.566 140.254C147.757 140.317 147.959 140.348 148.172 140.348ZM158.044 138.667C158.044 138.836 158.001 138.977 157.913 139.09C157.828 139.199 157.694 139.254 157.509 139.254C157.428 139.254 157.324 139.235 157.199 139.198C157.077 139.16 156.936 139.108 156.777 139.043C156.617 138.977 156.443 138.902 156.256 138.817C156.296 138.68 156.346 138.545 156.406 138.414C156.465 138.282 156.533 138.163 156.608 138.057C156.683 137.95 156.77 137.866 156.871 137.803C156.971 137.737 157.085 137.705 157.213 137.705C157.376 137.705 157.52 137.748 157.645 137.836C157.77 137.924 157.868 138.039 157.936 138.183C158.008 138.327 158.044 138.489 158.044 138.667ZM158.979 138.244C158.932 137.931 158.825 137.658 158.659 137.423C158.494 137.185 158.285 137 158.035 136.869C157.785 136.734 157.504 136.667 157.195 136.667C156.95 136.667 156.728 136.715 156.528 136.813C156.331 136.91 156.154 137.047 155.997 137.226C155.844 137.404 155.708 137.614 155.589 137.855C155.473 138.093 155.373 138.356 155.288 138.644C155 138.697 154.772 138.805 154.603 138.968C154.434 139.13 154.309 139.338 154.227 139.592C154.146 139.845 154.093 140.135 154.068 140.461C154.046 140.786 154.035 141.137 154.035 141.512C154.035 141.788 154.04 142.065 154.049 142.343C154.061 142.625 154.076 142.921 154.091 143.231H155.11C155.101 143.074 155.09 142.907 155.077 142.728C155.065 142.55 155.054 142.357 155.044 142.151C155.038 141.944 155.035 141.723 155.035 141.489C155.035 141.185 155.041 140.922 155.054 140.7C155.069 140.481 155.094 140.299 155.129 140.155C155.163 140.011 155.213 139.905 155.279 139.836C155.345 139.764 155.431 139.728 155.537 139.728C155.631 139.728 155.752 139.758 155.899 139.817C156.046 139.877 156.209 139.946 156.387 140.024C156.565 140.099 156.75 140.166 156.941 140.226C157.132 140.285 157.317 140.315 157.495 140.315C157.792 140.315 158.037 140.266 158.227 140.169C158.418 140.069 158.573 139.924 158.692 139.733C158.811 139.896 158.966 140.021 159.157 140.108C159.348 140.196 159.541 140.24 159.735 140.24H159.857V139.165H159.735C159.606 139.165 159.489 139.121 159.382 139.033C159.279 138.946 159.192 138.831 159.12 138.691C159.048 138.55 159.001 138.401 158.979 138.244ZM163.38 140.888L162.629 141.639L163.38 142.39L164.131 141.639L163.38 140.888ZM166.99 139.165H166.737C166.489 139.165 166.272 139.147 166.084 139.113C165.896 139.079 165.746 139.022 165.633 138.944C165.521 138.866 165.455 138.763 165.436 138.634C165.64 138.543 165.823 138.476 165.985 138.432C166.151 138.388 166.311 138.359 166.464 138.343V137.338C166.302 137.329 166.142 137.31 165.985 137.282C165.832 137.254 165.671 137.212 165.502 137.155C165.333 137.099 165.145 137.025 164.939 136.935C164.732 136.844 164.496 136.733 164.23 136.601C163.954 136.47 163.69 136.357 163.436 136.263C163.186 136.169 162.938 136.122 162.694 136.122C162.303 136.122 161.949 136.232 161.633 136.451C161.317 136.67 161.054 136.952 160.844 137.296L160.713 137.512L161.577 137.935L161.755 137.705C161.862 137.567 161.998 137.445 162.164 137.338C162.333 137.229 162.508 137.174 162.69 137.174C162.746 137.174 162.818 137.187 162.906 137.212C162.996 137.237 163.103 137.273 163.225 137.32C163.35 137.363 163.494 137.418 163.657 137.484C163.785 137.531 163.909 137.579 164.028 137.629C164.147 137.676 164.262 137.723 164.375 137.77C164.491 137.817 164.607 137.864 164.723 137.911C164.266 138.149 163.837 138.362 163.436 138.55C163.035 138.737 162.635 138.888 162.234 139C161.837 139.11 161.411 139.165 160.957 139.165H160.168V140.24H160.943C161.388 140.24 161.818 140.185 162.234 140.076C162.654 139.963 163.067 139.814 163.474 139.63C163.884 139.445 164.289 139.245 164.69 139.029C164.752 139.313 164.865 139.545 165.028 139.723C165.19 139.902 165.411 140.033 165.69 140.118C165.968 140.199 166.311 140.24 166.718 140.24H166.99V139.165ZM167.297 139.165V140.24H168.072C168.523 140.24 168.941 140.193 169.326 140.099C169.711 140.005 170.088 139.877 170.457 139.714C170.826 139.551 171.211 139.363 171.612 139.151C171.925 138.985 172.196 138.845 172.424 138.733C172.656 138.62 172.864 138.532 173.049 138.47C173.233 138.407 173.415 138.363 173.593 138.338V137.338C173.431 137.329 173.271 137.31 173.114 137.282C172.961 137.254 172.8 137.212 172.631 137.155C172.462 137.099 172.274 137.025 172.067 136.935C171.861 136.844 171.625 136.733 171.358 136.601C171.083 136.47 170.819 136.357 170.565 136.263C170.315 136.169 170.067 136.122 169.823 136.122C169.432 136.122 169.078 136.232 168.762 136.451C168.446 136.67 168.183 136.952 167.973 137.296L167.842 137.512L168.706 137.935L168.884 137.705C168.991 137.567 169.127 137.445 169.293 137.338C169.462 137.229 169.637 137.174 169.819 137.174C169.875 137.174 169.947 137.187 170.034 137.212C170.125 137.237 170.232 137.273 170.354 137.32C170.479 137.363 170.623 137.418 170.786 137.484C170.914 137.531 171.038 137.579 171.157 137.629C171.276 137.676 171.391 137.723 171.504 137.77C171.62 137.817 171.736 137.864 171.851 137.911C171.394 138.149 170.966 138.362 170.565 138.55C170.164 138.737 169.764 138.888 169.363 139C168.966 139.11 168.54 139.165 168.086 139.165H167.297ZM179.395 135.132L178.644 135.883L179.395 136.634L180.147 135.883L179.395 135.132ZM177.654 142.78C178.251 142.664 178.754 142.454 179.161 142.151C179.568 141.847 179.876 141.467 180.086 141.01C180.295 140.553 180.4 140.033 180.4 139.451C180.4 139.126 180.369 138.789 180.306 138.442C180.247 138.094 180.159 137.756 180.043 137.428L179.053 137.756C179.156 138.063 179.244 138.376 179.316 138.695C179.388 139.014 179.424 139.312 179.424 139.587C179.424 139.988 179.347 140.334 179.194 140.625C179.04 140.919 178.805 141.163 178.489 141.357C178.176 141.554 177.777 141.706 177.292 141.813L177.654 142.78ZM185.261 139.334C185.261 138.989 185.225 138.653 185.153 138.324C185.084 137.993 184.975 137.694 184.825 137.428C184.678 137.162 184.488 136.95 184.257 136.794C184.025 136.634 183.745 136.554 183.416 136.554C183.141 136.554 182.898 136.618 182.688 136.747C182.479 136.872 182.303 137.041 182.163 137.254C182.025 137.464 181.92 137.695 181.848 137.949C181.779 138.199 181.745 138.448 181.745 138.695C181.745 139.23 181.9 139.625 182.21 139.878C182.523 140.129 182.967 140.254 183.543 140.254C183.64 140.254 183.751 140.243 183.876 140.221C184.002 140.199 184.116 140.174 184.219 140.146C184.156 140.425 184.017 140.672 183.801 140.888C183.588 141.107 183.308 141.292 182.961 141.442C182.616 141.595 182.216 141.717 181.759 141.808L182.12 142.775C182.79 142.647 183.358 142.439 183.825 142.151C184.294 141.863 184.651 141.486 184.895 141.019C185.139 140.556 185.261 139.994 185.261 139.334ZM183.548 139.183C183.282 139.183 183.075 139.146 182.928 139.071C182.781 138.996 182.707 138.856 182.707 138.653C182.707 138.531 182.728 138.388 182.768 138.226C182.809 138.06 182.879 137.916 182.98 137.794C183.083 137.669 183.225 137.606 183.407 137.606C183.548 137.606 183.67 137.645 183.773 137.723C183.879 137.798 183.967 137.905 184.036 138.043C184.108 138.18 184.164 138.338 184.205 138.517C184.249 138.695 184.279 138.883 184.294 139.08C184.188 139.112 184.07 139.137 183.942 139.155C183.814 139.174 183.682 139.183 183.548 139.183ZM186.845 133.676V138.174C186.845 138.878 186.999 139.399 187.306 139.738C187.612 140.072 188.088 140.24 188.733 140.24H188.846V139.165H188.733C188.414 139.165 188.188 139.091 188.057 138.944C187.925 138.794 187.86 138.521 187.86 138.127V133.676H186.845ZM192.369 140.888L191.617 141.639L192.369 142.39L193.12 141.639L192.369 140.888ZM195.979 139.165H195.726C195.478 139.165 195.261 139.147 195.073 139.113C194.885 139.079 194.735 139.022 194.622 138.944C194.51 138.866 194.444 138.763 194.425 138.634C194.629 138.543 194.812 138.476 194.974 138.432C195.14 138.388 195.3 138.359 195.453 138.343V137.338C195.291 137.329 195.131 137.31 194.974 137.282C194.821 137.254 194.66 137.212 194.491 137.155C194.322 137.099 194.134 137.025 193.927 136.935C193.721 136.844 193.485 136.733 193.218 136.601C192.943 136.47 192.679 136.357 192.425 136.263C192.175 136.169 191.927 136.122 191.683 136.122C191.292 136.122 190.938 136.232 190.622 136.451C190.306 136.67 190.043 136.952 189.833 137.296L189.702 137.512L190.566 137.935L190.744 137.705C190.851 137.567 190.987 137.445 191.153 137.338C191.322 137.229 191.497 137.174 191.678 137.174C191.735 137.174 191.807 137.187 191.894 137.212C191.985 137.237 192.092 137.273 192.214 137.32C192.339 137.363 192.483 137.418 192.646 137.484C192.774 137.531 192.898 137.579 193.017 137.629C193.136 137.676 193.251 137.723 193.364 137.77C193.48 137.817 193.596 137.864 193.711 137.911C193.254 138.149 192.826 138.362 192.425 138.55C192.024 138.737 191.624 138.888 191.223 139C190.826 139.11 190.4 139.165 189.946 139.165H189.157V140.24H189.932C190.376 140.24 190.807 140.185 191.223 140.076C191.642 139.963 192.056 139.814 192.463 139.63C192.873 139.445 193.278 139.245 193.679 139.029C193.741 139.313 193.854 139.545 194.017 139.723C194.179 139.902 194.4 140.033 194.679 140.118C194.957 140.199 195.3 140.24 195.707 140.24H195.979V139.165ZM196.277 139.165V140.24H196.61V139.165H196.277ZM198.347 134.812L197.634 135.526L198.347 136.254L199.07 135.526L198.347 134.812ZM196.779 134.812L196.061 135.526L196.779 136.254L197.502 135.526L196.779 134.812ZM197.911 137.174C197.923 137.321 197.933 137.471 197.939 137.625C197.948 137.778 197.953 137.936 197.953 138.099C197.953 138.443 197.876 138.708 197.723 138.892C197.573 139.074 197.31 139.165 196.934 139.165H196.493V140.24H196.934C197.231 140.24 197.515 140.184 197.784 140.071C198.056 139.958 198.28 139.791 198.455 139.568C198.546 139.709 198.652 139.83 198.775 139.93C198.9 140.027 199.047 140.104 199.216 140.16C199.385 140.213 199.581 140.24 199.803 140.24H199.906V139.165H199.812C199.624 139.165 199.468 139.129 199.343 139.057C199.221 138.982 199.127 138.877 199.061 138.742C198.995 138.604 198.958 138.445 198.948 138.263L198.864 137.057L197.911 137.174ZM200.194 139.165V140.24H200.57V139.165H200.194ZM201.894 140.921L201.18 141.639L201.894 142.367L202.617 141.639L201.894 140.921ZM200.326 140.921L199.607 141.639L200.326 142.367L201.049 141.639L200.326 140.921ZM200.983 140.24C201.481 140.24 201.869 140.152 202.147 139.977C202.429 139.799 202.626 139.554 202.739 139.245C202.855 138.932 202.913 138.57 202.913 138.16C202.913 137.91 202.895 137.639 202.861 137.348C202.827 137.057 202.77 136.772 202.692 136.493L201.706 136.756C201.787 137.06 201.845 137.346 201.88 137.615C201.917 137.881 201.936 138.102 201.936 138.277C201.936 138.581 201.864 138.805 201.72 138.949C201.579 139.093 201.33 139.165 200.974 139.165H200.467V140.24H200.983ZM208.17 140.24C208.549 140.24 208.914 140.215 209.264 140.165C209.615 140.112 209.939 140.021 210.236 139.892C210.536 139.764 210.796 139.584 211.015 139.353C211.238 139.121 211.41 138.827 211.532 138.47C211.657 138.11 211.72 137.676 211.72 137.169V133.676H210.71V137.136C210.71 137.528 210.668 137.849 210.583 138.099C210.499 138.346 210.378 138.543 210.222 138.691C210.069 138.834 209.885 138.942 209.673 139.014C209.673 139.014 209.654 138.914 209.616 138.714C209.579 138.511 209.521 138.235 209.443 137.888C209.364 137.537 209.266 137.141 209.147 136.7C209.031 136.258 208.893 135.794 208.734 135.305C208.577 134.817 208.399 134.337 208.198 133.864L207.278 134.287C207.482 134.744 207.662 135.205 207.818 135.672C207.975 136.135 208.109 136.578 208.222 137C208.335 137.423 208.427 137.8 208.499 138.132C208.571 138.464 208.624 138.725 208.658 138.916C208.696 139.107 208.715 139.202 208.715 139.202C208.662 139.209 208.597 139.213 208.522 139.216C208.447 139.216 208.361 139.216 208.264 139.216C208.126 139.216 207.976 139.212 207.813 139.202C207.654 139.193 207.477 139.182 207.283 139.169V140.193C207.433 140.205 207.582 140.216 207.729 140.226C207.879 140.235 208.026 140.24 208.17 140.24ZM213.581 133.39L213.078 133.587L213.149 134.075L214.975 133.352L214.905 132.855L214.257 133.085C214.251 133.088 214.243 133.091 214.233 133.094C214.227 133.097 214.221 133.099 214.215 133.099C214.046 133.124 213.917 133.094 213.83 133.01C213.742 132.925 213.697 132.837 213.693 132.747C213.693 132.596 213.748 132.482 213.858 132.404C213.967 132.326 214.088 132.287 214.219 132.287C214.301 132.287 214.384 132.294 214.468 132.31C214.556 132.326 214.648 132.359 214.745 132.409L214.74 131.906C214.65 131.853 214.559 131.814 214.468 131.789C214.377 131.761 214.272 131.747 214.154 131.747C213.912 131.747 213.697 131.836 213.506 132.014C213.315 132.189 213.219 132.413 213.219 132.686C213.219 132.861 213.252 133.002 213.318 133.108C213.387 133.211 213.474 133.305 213.581 133.39ZM214.567 134.338H213.557V140.235H214.567V134.338ZM223.115 140.888L222.364 141.639L223.115 142.39L223.867 141.639L223.115 140.888ZM225.782 137.16C225.788 137.295 225.796 137.448 225.806 137.62C225.818 137.792 225.824 137.95 225.824 138.094C225.824 138.354 225.735 138.562 225.557 138.719C225.378 138.875 225.12 138.989 224.782 139.061C224.447 139.13 224.04 139.165 223.561 139.165H222.777C222.37 139.165 222.004 139.143 221.679 139.099C221.356 139.052 221.079 138.977 220.848 138.874C220.619 138.77 220.442 138.631 220.317 138.456C220.195 138.28 220.134 138.063 220.134 137.803C220.134 137.647 220.154 137.482 220.195 137.31C220.239 137.135 220.286 136.977 220.336 136.836L219.434 136.498C219.35 136.705 219.28 136.925 219.223 137.16C219.17 137.392 219.143 137.629 219.143 137.874C219.143 138.306 219.225 138.672 219.388 138.972C219.553 139.27 219.793 139.512 220.106 139.7C220.419 139.888 220.799 140.025 221.247 140.113C221.697 140.198 222.208 140.24 222.777 140.24H223.561C224.021 140.24 224.416 140.213 224.745 140.16C225.076 140.104 225.361 140.018 225.599 139.902C225.837 139.786 226.045 139.633 226.223 139.442C226.374 139.708 226.565 139.908 226.796 140.043C227.031 140.174 227.325 140.24 227.679 140.24H227.782V139.165H227.679C227.397 139.165 227.189 139.082 227.054 138.916C226.92 138.747 226.843 138.526 226.824 138.254L226.735 137.043L225.782 137.16ZM231.305 140.888L230.554 141.639L231.305 142.39L232.057 141.639L231.305 140.888ZM234.916 139.165H234.662C234.415 139.165 234.197 139.147 234.01 139.113C233.822 139.079 233.672 139.022 233.559 138.944C233.446 138.866 233.381 138.763 233.362 138.634C233.565 138.543 233.748 138.476 233.911 138.432C234.077 138.388 234.237 138.359 234.39 138.343V137.338C234.227 137.329 234.068 137.31 233.911 137.282C233.758 137.254 233.596 137.212 233.427 137.155C233.258 137.099 233.071 137.025 232.864 136.935C232.657 136.844 232.421 136.733 232.155 136.601C231.88 136.47 231.615 136.357 231.362 136.263C231.111 136.169 230.864 136.122 230.62 136.122C230.229 136.122 229.875 136.232 229.559 136.451C229.243 136.67 228.98 136.952 228.77 137.296L228.639 137.512L229.502 137.935L229.681 137.705C229.787 137.567 229.923 137.445 230.089 137.338C230.258 137.229 230.434 137.174 230.615 137.174C230.671 137.174 230.743 137.187 230.831 137.212C230.922 137.237 231.028 137.273 231.15 137.32C231.276 137.363 231.42 137.418 231.582 137.484C231.711 137.531 231.834 137.579 231.953 137.629C232.072 137.676 232.188 137.723 232.301 137.77C232.416 137.817 232.532 137.864 232.648 137.911C232.191 138.149 231.762 138.362 231.362 138.55C230.961 138.737 230.56 138.888 230.16 139C229.762 139.11 229.337 139.165 228.883 139.165H228.094V140.24H228.869C229.313 140.24 229.743 140.185 230.16 140.076C230.579 139.963 230.992 139.814 231.399 139.63C231.809 139.445 232.215 139.245 232.615 139.029C232.678 139.313 232.791 139.545 232.953 139.723C233.116 139.902 233.337 140.033 233.615 140.118C233.894 140.199 234.237 140.24 234.643 140.24H234.916V139.165ZM235.204 139.165V140.24H235.58V139.165H235.204ZM236.904 140.921L236.19 141.639L236.904 142.367L237.627 141.639L236.904 140.921ZM235.336 140.921L234.617 141.639L235.336 142.367L236.059 141.639L235.336 140.921ZM235.993 140.24C236.49 140.24 236.879 140.152 237.157 139.977C237.439 139.799 237.636 139.554 237.749 139.245C237.865 138.932 237.922 138.57 237.922 138.16C237.922 137.91 237.905 137.639 237.871 137.348C237.836 137.057 237.78 136.772 237.702 136.493L236.716 136.756C236.797 137.06 236.855 137.346 236.89 137.615C236.927 137.881 236.946 138.102 236.946 138.277C236.946 138.581 236.874 138.805 236.73 138.949C236.589 139.093 236.34 139.165 235.983 139.165H235.476V140.24H235.993ZM242.466 139.526C242.466 139.73 242.537 139.9 242.678 140.038C242.818 140.173 242.991 140.24 243.194 140.24C243.394 140.24 243.565 140.171 243.706 140.033C243.85 139.896 243.922 139.727 243.922 139.526C243.922 139.326 243.85 139.157 243.706 139.019C243.565 138.881 243.394 138.813 243.194 138.813C242.994 138.813 242.822 138.881 242.678 139.019C242.537 139.157 242.466 139.326 242.466 139.526ZM251.741 133.944L250.99 134.695L251.741 135.446L252.492 134.695L251.741 133.944ZM251.788 137.132C251.9 137.132 252.018 137.174 252.14 137.259C252.265 137.34 252.372 137.443 252.459 137.568C252.547 137.69 252.591 137.809 252.591 137.925C252.591 138.06 252.551 138.196 252.473 138.334C252.398 138.468 252.3 138.59 252.177 138.7C252.059 138.806 251.932 138.891 251.797 138.953C251.684 138.894 251.567 138.809 251.445 138.7C251.326 138.59 251.224 138.468 251.14 138.334C251.058 138.199 251.018 138.066 251.018 137.935C251.018 137.813 251.06 137.69 251.145 137.568C251.229 137.443 251.331 137.34 251.45 137.259C251.569 137.174 251.681 137.132 251.788 137.132ZM249.116 139.165C248.709 139.165 248.343 139.143 248.018 139.099C247.695 139.052 247.418 138.977 247.187 138.874C246.958 138.77 246.781 138.631 246.656 138.456C246.534 138.28 246.473 138.063 246.473 137.803C246.473 137.647 246.493 137.482 246.534 137.31C246.578 137.135 246.625 136.977 246.675 136.836L245.773 136.498C245.689 136.705 245.619 136.925 245.562 137.16C245.509 137.392 245.482 137.629 245.482 137.874C245.482 138.306 245.564 138.672 245.727 138.972C245.892 139.27 246.132 139.512 246.445 139.7C246.758 139.888 247.138 140.025 247.586 140.113C248.036 140.198 248.547 140.24 249.116 140.24H249.572C249.688 140.24 249.835 140.232 250.013 140.216C250.195 140.201 250.39 140.179 250.6 140.151C250.813 140.122 251.022 140.086 251.229 140.043C251.436 139.999 251.62 139.947 251.783 139.888C251.999 139.963 252.22 140.027 252.445 140.08C252.67 140.133 252.883 140.174 253.084 140.202C253.284 140.227 253.456 140.24 253.6 140.24H254.126V139.165H253.675C253.622 139.165 253.562 139.165 253.497 139.165C253.434 139.165 253.365 139.165 253.29 139.165C253.218 139.162 253.138 139.157 253.051 139.151C253.157 139.019 253.248 138.889 253.323 138.761C253.401 138.629 253.461 138.495 253.501 138.357C253.545 138.219 253.567 138.075 253.567 137.925C253.567 137.703 253.517 137.484 253.417 137.268C253.32 137.052 253.187 136.856 253.018 136.681C252.849 136.503 252.658 136.36 252.445 136.254C252.235 136.147 252.016 136.094 251.788 136.094C251.566 136.094 251.35 136.147 251.14 136.254C250.933 136.36 250.747 136.503 250.581 136.681C250.415 136.856 250.284 137.052 250.187 137.268C250.09 137.481 250.041 137.697 250.041 137.916C250.041 138.066 250.06 138.21 250.098 138.348C250.138 138.485 250.196 138.62 250.271 138.752C250.35 138.883 250.44 139.014 250.544 139.146C250.462 139.152 250.37 139.157 250.267 139.16C250.163 139.16 250.06 139.162 249.957 139.165C249.857 139.165 249.766 139.165 249.684 139.165C249.606 139.165 249.548 139.165 249.511 139.165H249.116ZM255.668 138.099C255.668 138.318 255.641 138.507 255.588 138.667C255.535 138.827 255.442 138.95 255.311 139.038C255.179 139.122 254.995 139.165 254.757 139.165H254.433V140.24H254.776C255.039 140.24 255.255 140.215 255.424 140.165C255.593 140.112 255.735 140.035 255.851 139.935C255.967 139.835 256.078 139.714 256.184 139.573C256.278 139.717 256.385 139.839 256.503 139.939C256.626 140.04 256.769 140.115 256.935 140.165C257.101 140.215 257.298 140.24 257.527 140.24H257.658V139.165H257.518C257.298 139.165 257.128 139.122 257.006 139.038C256.884 138.95 256.798 138.827 256.748 138.667C256.701 138.507 256.677 138.321 256.677 138.108V133.676H255.668V138.099ZM261.027 137.7C261.283 137.7 261.484 137.791 261.628 137.972C261.772 138.151 261.844 138.374 261.844 138.644C261.844 138.841 261.795 138.999 261.698 139.118C261.604 139.237 261.455 139.296 261.252 139.296C261.167 139.296 261.072 139.279 260.966 139.245C260.859 139.21 260.745 139.155 260.623 139.08C260.538 139.03 260.451 138.969 260.36 138.897C260.269 138.825 260.175 138.742 260.078 138.648C260.147 138.501 260.227 138.354 260.318 138.207C260.412 138.06 260.516 137.939 260.632 137.845C260.751 137.748 260.883 137.7 261.027 137.7ZM261.252 140.348C261.59 140.348 261.875 140.276 262.106 140.132C262.338 139.985 262.513 139.781 262.632 139.522C262.751 139.259 262.811 138.95 262.811 138.597C262.811 138.246 262.736 137.925 262.585 137.634C262.438 137.34 262.229 137.105 261.956 136.93C261.687 136.755 261.368 136.667 260.998 136.667C260.714 136.667 260.469 136.726 260.266 136.845C260.066 136.964 259.892 137.119 259.745 137.31C259.598 137.501 259.465 137.703 259.346 137.916C259.23 138.129 259.114 138.331 258.998 138.521C258.886 138.709 258.762 138.864 258.627 138.986C258.493 139.105 258.333 139.165 258.149 139.165H257.975V140.24H258.172C258.404 140.24 258.598 140.213 258.754 140.16C258.911 140.104 259.048 140.025 259.167 139.925C259.289 139.822 259.413 139.703 259.538 139.568C259.726 139.731 259.911 139.871 260.092 139.986C260.274 140.102 260.459 140.191 260.646 140.254C260.837 140.317 261.039 140.348 261.252 140.348ZM271.857 134.277L271.143 134.996L271.857 135.723L272.58 134.996L271.857 134.277ZM270.289 134.277L269.571 134.996L270.289 135.723L271.012 134.996L270.289 134.277ZM270.003 142.315C271.023 142.315 271.782 142.071 272.28 141.583C272.78 141.097 273.031 140.365 273.031 139.385C273.031 139.01 272.998 138.642 272.932 138.282C272.867 137.919 272.762 137.59 272.618 137.296C272.474 136.999 272.281 136.762 272.04 136.587C271.799 136.412 271.503 136.324 271.153 136.324C270.877 136.324 270.635 136.387 270.425 136.512C270.219 136.634 270.046 136.798 269.909 137.005C269.771 137.208 269.668 137.432 269.599 137.676C269.53 137.917 269.495 138.157 269.495 138.395C269.495 138.886 269.641 139.252 269.932 139.493C270.223 139.731 270.644 139.85 271.195 139.85C271.364 139.85 271.517 139.839 271.655 139.817C271.796 139.795 271.937 139.766 272.078 139.728C272.065 140.054 271.987 140.329 271.843 140.554C271.699 140.783 271.477 140.955 271.176 141.071C270.876 141.19 270.485 141.249 270.003 141.249C269.53 141.249 269.156 141.169 268.88 141.01C268.608 140.853 268.412 140.641 268.294 140.371C268.178 140.105 268.12 139.813 268.12 139.493C268.12 139.212 268.154 138.916 268.223 138.606C268.295 138.296 268.381 137.989 268.481 137.686L267.561 137.324C267.427 137.681 267.322 138.046 267.247 138.418C267.175 138.788 267.139 139.147 267.139 139.498C267.139 140.021 267.236 140.495 267.43 140.921C267.627 141.346 267.937 141.684 268.359 141.935C268.782 142.188 269.33 142.315 270.003 142.315ZM271.195 138.822C270.96 138.822 270.773 138.792 270.632 138.733C270.494 138.67 270.425 138.543 270.425 138.352C270.425 138.221 270.45 138.079 270.5 137.925C270.553 137.772 270.633 137.64 270.74 137.531C270.846 137.421 270.981 137.367 271.143 137.367C271.284 137.367 271.405 137.409 271.505 137.493C271.605 137.578 271.688 137.687 271.754 137.822C271.823 137.957 271.877 138.104 271.918 138.263C271.959 138.42 271.989 138.568 272.007 138.709C271.876 138.744 271.741 138.772 271.604 138.794C271.469 138.813 271.333 138.822 271.195 138.822ZM274.62 133.676V138.174C274.62 138.878 274.773 139.399 275.08 139.738C275.386 140.072 275.862 140.24 276.507 140.24H276.62V139.165H276.507C276.188 139.165 275.962 139.091 275.831 138.944C275.699 138.794 275.634 138.521 275.634 138.127V133.676H274.62ZM279.063 132.873L278.312 133.625L279.063 134.376L279.814 133.625L279.063 132.873ZM279.246 137.521C279.005 137.521 278.814 137.493 278.673 137.437C278.536 137.377 278.467 137.251 278.467 137.057C278.467 136.922 278.492 136.78 278.542 136.629C278.592 136.476 278.669 136.345 278.772 136.235C278.878 136.125 279.014 136.071 279.18 136.071C279.321 136.071 279.442 136.113 279.542 136.197C279.642 136.282 279.725 136.392 279.791 136.526C279.86 136.661 279.914 136.806 279.955 136.963C279.996 137.119 280.025 137.268 280.044 137.409C279.913 137.443 279.78 137.471 279.645 137.493C279.514 137.512 279.381 137.521 279.246 137.521ZM278.706 139.165H276.931V140.24H278.65C279.076 140.24 279.439 140.21 279.739 140.151C280.04 140.091 280.285 139.982 280.476 139.822C280.667 139.659 280.808 139.429 280.899 139.132C280.99 138.834 281.035 138.448 281.035 137.972C281.035 137.609 281 137.254 280.932 136.906C280.866 136.556 280.759 136.24 280.612 135.958C280.468 135.676 280.279 135.451 280.044 135.282C279.809 135.113 279.525 135.028 279.19 135.028C278.924 135.028 278.687 135.089 278.481 135.212C278.274 135.334 278.101 135.496 277.96 135.7C277.819 135.903 277.712 136.127 277.64 136.371C277.568 136.612 277.532 136.855 277.532 137.099C277.532 137.572 277.678 137.921 277.969 138.146C278.263 138.368 278.68 138.479 279.218 138.479C279.374 138.479 279.525 138.47 279.669 138.451C279.813 138.432 279.952 138.406 280.086 138.371C280.083 138.606 280.032 138.78 279.932 138.892C279.835 139.005 279.684 139.079 279.481 139.113C279.281 139.147 279.022 139.165 278.706 139.165ZM281.473 142.78C282.071 142.664 282.574 142.454 282.981 142.151C283.387 141.847 283.696 141.467 283.905 141.01C284.115 140.553 284.22 140.033 284.22 139.451C284.22 139.126 284.189 138.789 284.126 138.442C284.067 138.094 283.979 137.756 283.863 137.428L282.873 137.756C282.976 138.063 283.063 138.376 283.135 138.695C283.207 139.014 283.243 139.312 283.243 139.587C283.243 139.988 283.167 140.334 283.013 140.625C282.86 140.919 282.625 141.163 282.309 141.357C281.996 141.554 281.597 141.706 281.112 141.813L281.473 142.78ZM285.809 142.376L285.306 142.573L285.377 143.062L287.203 142.339L287.133 141.841L286.485 142.071C286.479 142.074 286.471 142.077 286.461 142.08C286.455 142.083 286.449 142.085 286.443 142.085C286.274 142.11 286.145 142.08 286.058 141.996C285.97 141.911 285.925 141.824 285.921 141.733C285.921 141.583 285.976 141.468 286.086 141.39C286.195 141.312 286.316 141.273 286.447 141.273C286.529 141.273 286.612 141.281 286.696 141.296C286.784 141.312 286.876 141.345 286.973 141.395L286.968 140.892C286.878 140.839 286.787 140.799 286.696 140.77C286.605 140.745 286.501 140.733 286.382 140.733C286.141 140.733 285.925 140.82 285.734 140.996C285.543 141.174 285.447 141.4 285.447 141.672C285.447 141.847 285.48 141.986 285.546 142.09C285.615 142.196 285.702 142.292 285.809 142.376ZM286.828 133.676H285.818V140.235H286.828V133.676ZM295.034 139.165C294.627 139.165 294.26 139.143 293.935 139.099C293.609 139.052 293.332 138.977 293.104 138.874C292.875 138.77 292.699 138.631 292.573 138.456C292.451 138.28 292.39 138.063 292.39 137.803C292.39 137.647 292.411 137.482 292.451 137.31C292.495 137.135 292.542 136.977 292.592 136.836L291.691 136.498C291.606 136.705 291.536 136.925 291.479 137.16C291.426 137.392 291.4 137.629 291.4 137.874C291.4 138.306 291.483 138.672 291.648 138.972C291.814 139.273 292.054 139.517 292.367 139.705C292.68 139.889 293.06 140.025 293.508 140.113C293.958 140.198 294.467 140.24 295.034 140.24H295.789C296.174 140.24 296.519 140.223 296.822 140.188C297.129 140.151 297.405 140.08 297.649 139.977C297.893 139.874 298.115 139.725 298.315 139.531C298.425 139.775 298.585 139.955 298.794 140.071C299.004 140.184 299.303 140.24 299.691 140.24H299.855V139.165H299.682C299.434 139.165 299.253 139.116 299.137 139.019C299.024 138.919 298.954 138.772 298.926 138.578C298.898 138.384 298.883 138.144 298.883 137.859V133.676H297.869V137.874C297.869 138.102 297.852 138.299 297.818 138.465C297.783 138.628 297.699 138.761 297.564 138.864C297.433 138.964 297.223 139.04 296.935 139.09C296.65 139.14 296.257 139.165 295.757 139.165H295.034ZM294.306 137.179V137.775C294.422 137.794 294.542 137.809 294.667 137.822C294.793 137.831 294.916 137.836 295.038 137.836C295.26 137.836 295.467 137.813 295.658 137.766C295.852 137.716 296.009 137.631 296.127 137.512C296.25 137.393 296.311 137.227 296.311 137.014C296.311 136.914 296.293 136.83 296.259 136.761C296.228 136.692 296.184 136.631 296.127 136.578C296.043 136.493 295.94 136.428 295.818 136.381C295.696 136.334 295.575 136.298 295.456 136.273C295.337 136.248 295.237 136.223 295.156 136.197C295.077 136.172 295.038 136.138 295.038 136.094C295.038 136.028 295.079 135.967 295.16 135.911C295.245 135.852 295.348 135.8 295.47 135.756C295.595 135.709 295.722 135.675 295.85 135.653C295.979 135.628 296.087 135.615 296.174 135.615L296.137 134.991C295.98 134.991 295.807 135.014 295.616 135.061C295.425 135.105 295.242 135.174 295.066 135.268C294.891 135.359 294.747 135.476 294.634 135.62C294.522 135.761 294.465 135.931 294.465 136.132C294.465 136.285 294.508 136.409 294.592 136.503C294.68 136.597 294.788 136.669 294.916 136.719C295.044 136.769 295.173 136.809 295.301 136.841C295.433 136.869 295.541 136.897 295.625 136.925C295.713 136.95 295.757 136.986 295.757 137.033C295.757 137.115 295.686 137.171 295.545 137.202C295.404 137.233 295.242 137.249 295.057 137.249C294.922 137.249 294.786 137.243 294.649 137.23C294.514 137.215 294.4 137.198 294.306 137.179ZM301.58 137.174C301.593 137.321 301.602 137.471 301.608 137.625C301.618 137.778 301.623 137.936 301.623 138.099C301.623 138.443 301.546 138.708 301.392 138.892C301.242 139.074 300.979 139.165 300.604 139.165H300.162V140.24H300.604C300.901 140.24 301.184 140.184 301.454 140.071C301.726 139.958 301.95 139.791 302.125 139.568C302.216 139.709 302.322 139.83 302.444 139.93C302.569 140.027 302.716 140.104 302.885 140.16C303.055 140.213 303.25 140.24 303.472 140.24H303.576V139.165H303.482C303.294 139.165 303.137 139.129 303.012 139.057C302.89 138.982 302.796 138.877 302.731 138.742C302.665 138.604 302.627 138.445 302.618 138.263L302.533 137.057L301.58 137.174ZM301.74 134.784L300.989 135.535L301.74 136.287L302.491 135.535L301.74 134.784ZM305.254 135.78L308.024 134.657V133.601L304.54 135.019C304.384 135.082 304.265 135.183 304.183 135.324C304.105 135.462 304.066 135.607 304.066 135.761C304.066 135.892 304.097 136.019 304.16 136.141C304.222 136.26 304.31 136.363 304.423 136.451C304.589 136.579 304.77 136.711 304.967 136.845C305.164 136.98 305.36 137.116 305.554 137.254C305.748 137.388 305.927 137.526 306.089 137.667C306.252 137.805 306.382 137.942 306.479 138.08C306.579 138.215 306.629 138.346 306.629 138.475C306.629 138.656 306.571 138.797 306.456 138.897C306.343 138.997 306.168 139.068 305.93 139.108C305.695 139.146 305.39 139.165 305.014 139.165H303.883V140.24H305.019C305.451 140.24 305.806 140.213 306.085 140.16C306.366 140.104 306.6 140.018 306.784 139.902C306.972 139.783 307.136 139.631 307.277 139.446C307.462 139.728 307.678 139.932 307.925 140.057C308.176 140.179 308.481 140.24 308.841 140.24H308.972V139.165H308.841C308.615 139.165 308.431 139.129 308.287 139.057C308.143 138.985 308.019 138.87 307.916 138.714C307.816 138.557 307.714 138.354 307.611 138.104C307.526 137.9 307.426 137.712 307.31 137.54C307.197 137.368 307.069 137.208 306.925 137.061C306.784 136.911 306.628 136.767 306.456 136.629C306.283 136.492 306.097 136.354 305.897 136.216C305.697 136.075 305.482 135.93 305.254 135.78ZM309.472 140.24C309.703 140.24 309.897 140.213 310.054 140.16C310.21 140.104 310.348 140.025 310.467 139.925C310.589 139.822 310.713 139.703 310.838 139.568C311.026 139.731 311.21 139.871 311.392 139.986C311.573 140.102 311.758 140.191 311.946 140.254C312.137 140.317 312.339 140.348 312.552 140.348C312.843 140.348 313.085 140.296 313.279 140.193C313.473 140.086 313.641 139.936 313.782 139.742C313.901 139.899 314.056 140.021 314.246 140.108C314.441 140.196 314.638 140.24 314.838 140.24H314.965V139.165H314.843C314.727 139.165 314.617 139.133 314.514 139.071C314.414 139.008 314.326 138.911 314.251 138.78C314.176 138.645 314.118 138.476 314.077 138.273C314.021 137.969 313.916 137.697 313.763 137.456C313.613 137.212 313.415 137.019 313.171 136.878C312.93 136.737 312.639 136.667 312.298 136.667C312.013 136.667 311.769 136.726 311.566 136.845C311.365 136.964 311.192 137.119 311.044 137.31C310.897 137.501 310.764 137.703 310.645 137.916C310.53 138.129 310.414 138.331 310.298 138.521C310.185 138.709 310.062 138.864 309.927 138.986C309.792 139.105 309.633 139.165 309.448 139.165H309.274V140.24H309.472ZM312.326 137.7C312.583 137.7 312.783 137.791 312.927 137.972C313.071 138.151 313.143 138.374 313.143 138.644C313.143 138.841 313.095 138.999 312.998 139.118C312.904 139.237 312.755 139.296 312.552 139.296C312.473 139.296 312.383 139.281 312.279 139.249C312.179 139.218 312.07 139.168 311.951 139.099C311.863 139.049 311.771 138.986 311.674 138.911C311.577 138.836 311.478 138.748 311.378 138.648C311.447 138.501 311.526 138.354 311.617 138.207C311.711 138.06 311.816 137.939 311.932 137.845C312.051 137.748 312.182 137.7 312.326 137.7ZM315.248 139.165V140.24H315.624V139.165H315.248ZM316.948 140.921L316.234 141.639L316.948 142.367L317.671 141.639L316.948 140.921ZM315.38 140.921L314.662 141.639L315.38 142.367L316.103 141.639L315.38 140.921ZM316.037 140.24C316.535 140.24 316.923 140.152 317.202 139.977C317.483 139.799 317.68 139.554 317.793 139.245C317.909 138.932 317.967 138.57 317.967 138.16C317.967 137.91 317.95 137.639 317.915 137.348C317.881 137.057 317.824 136.772 317.746 136.493L316.76 136.756C316.842 137.06 316.899 137.346 316.934 137.615C316.971 137.881 316.99 138.102 316.99 138.277C316.99 138.581 316.918 138.805 316.774 138.949C316.633 139.093 316.385 139.165 316.028 139.165H315.521V140.24H316.037Z" fill="white"/>
<path d="M172.549 33.7844L172.452 33.7556C171.967 33.611 171.691 33.1008 171.835 32.6153C173.254 27.8493 177.671 24.3496 182.927 24.3496C183.433 24.3496 183.844 24.7603 183.844 25.2666C183.844 25.773 183.433 26.1836 182.927 26.1836C178.65 26.1836 174.811 29.0437 173.593 33.1378L172.549 33.7844ZM172.549 33.7844L172.553 33.7796M172.549 33.7844L172.553 33.7796M172.553 33.7796C173.008 33.8618 173.459 33.5893 173.593 33.138L172.553 33.7796Z" fill="white" stroke="#F9FFF9" stroke-width="0.312"/>
<path d="M193.58 62.5559H189.015C188.594 62.5559 188.253 62.2151 188.253 61.7949C188.253 61.3747 188.594 61.0339 189.015 61.0339H193.58C199.874 61.0339 204.995 55.9128 204.995 49.6189C204.995 43.3249 199.874 38.2039 193.58 38.2039H193.471C193.25 38.2039 193.04 38.1082 192.896 37.9413C192.751 37.7745 192.686 37.5532 192.717 37.3347C192.785 36.8607 192.819 36.3846 192.819 35.9209C192.819 30.4662 188.381 26.0278 182.926 26.0278C180.804 26.0278 178.781 26.691 177.074 27.9461C176.699 28.2217 176.166 28.0994 175.949 27.6868C171.115 18.482 158.489 17.2459 151.943 25.2533C149.186 28.6267 148.103 33.0149 148.971 37.2918C149.066 37.7642 148.705 38.2045 148.225 38.2045H147.92C141.626 38.2045 136.505 43.3255 136.505 49.6195C136.505 55.9134 141.626 61.0344 147.92 61.0344H152.486C152.906 61.0344 153.247 61.3753 153.247 61.7954C153.247 62.2156 152.906 62.5565 152.486 62.5565H147.92C140.787 62.5565 134.983 56.7527 134.983 49.6194C134.983 42.6862 140.465 37.0091 147.323 36.696C146.678 32.2588 147.91 27.783 150.765 24.2901C157.773 15.7163 171.204 16.6773 176.882 26.2377C178.693 25.1021 180.765 24.5065 182.926 24.5065C189.535 24.5065 194.772 30.1314 194.313 36.7031C201.108 37.0841 206.517 42.7313 206.517 49.6188C206.517 56.7527 200.713 62.5559 193.58 62.5559L193.58 62.5559Z" fill="white"/>
<path d="M151.467 61.3651C151.467 71.9419 160.071 80.5463 170.648 80.5463C181.225 80.5463 189.829 71.9417 189.829 61.3651C189.829 50.7884 181.225 42.1839 170.648 42.1839C160.071 42.1839 151.467 50.7885 151.467 61.3651ZM153.301 61.3651C153.301 51.8003 161.083 44.0183 170.648 44.0183C180.213 44.0183 187.995 51.8002 187.995 61.3651C187.995 70.9299 180.213 78.712 170.648 78.712C161.083 78.712 153.301 70.93 153.301 61.3651Z" fill="white" stroke="#F9FFF9" stroke-width="0.312"/>
<path d="M170.283 69.0239C170.283 69.4177 170.602 69.7371 170.996 69.7371C171.39 69.7371 171.709 69.4182 171.709 69.0239V54.5382C171.709 54.1444 171.39 53.8251 170.996 53.8251C170.602 53.8251 170.283 54.1444 170.283 54.5382V69.0239Z" fill="white" stroke="white" stroke-width="0.312"/>
<path d="M170.996 55.5481L167.043 59.5008C166.765 59.7796 166.313 59.7795 166.034 59.5009C165.756 59.2223 165.756 58.771 166.034 58.4924L170.491 54.0354L170.996 55.5481ZM170.996 55.5481L174.949 59.5009C175.088 59.64 175.271 59.7098 175.453 59.7098L170.996 55.5481ZM171.5 54.0353C171.222 53.7568 170.77 53.7566 170.491 54.0353L175.453 59.7098C175.635 59.7098 175.818 59.6406 175.957 59.5007C176.236 59.2221 176.236 58.7709 175.957 58.4924L171.5 54.0353Z" fill="white" stroke="white" stroke-width="0.312"/>
</svg>
